<mxfile host="app.diagrams.net" agent="Mozilla/5.0 (X11; Linux x86_64) AppleWebKit/537.36 (KHTML, like Gecko) Chrome/130.0.0.0 Safari/537.36" version="24.7.17">
  <diagram name="Pagina-1" id="lWvnA8vltDvOHtJLlSwG">
    <mxGraphModel dx="683" dy="359" grid="1" gridSize="10" guides="1" tooltips="1" connect="1" arrows="1" fold="1" page="1" pageScale="1" pageWidth="827" pageHeight="1169" math="0" shadow="0">
      <root>
        <mxCell id="0" />
        <mxCell id="1" parent="0" />
        <mxCell id="DvPo4eW4fTsrVd996iuE-14" value="2" style="whiteSpace=wrap;html=1;aspect=fixed;fillColor=#CCE5FF;" vertex="1" parent="1">
          <mxGeometry x="160" y="160" width="40" height="40" as="geometry" />
        </mxCell>
        <mxCell id="DvPo4eW4fTsrVd996iuE-15" value="3" style="whiteSpace=wrap;html=1;aspect=fixed;" vertex="1" parent="1">
          <mxGeometry x="200" y="160" width="40" height="40" as="geometry" />
        </mxCell>
        <mxCell id="DvPo4eW4fTsrVd996iuE-16" value="2" style="whiteSpace=wrap;html=1;aspect=fixed;fillColor=#CCE5FF;" vertex="1" parent="1">
          <mxGeometry x="240" y="160" width="40" height="40" as="geometry" />
        </mxCell>
        <mxCell id="DvPo4eW4fTsrVd996iuE-17" value="" style="whiteSpace=wrap;html=1;aspect=fixed;fillColor=#eeeeee;strokeColor=#36393d;" vertex="1" parent="1">
          <mxGeometry x="280" y="160" width="40" height="40" as="geometry" />
        </mxCell>
        <mxCell id="DvPo4eW4fTsrVd996iuE-18" value="" style="whiteSpace=wrap;html=1;aspect=fixed;fillColor=#eeeeee;strokeColor=#36393d;" vertex="1" parent="1">
          <mxGeometry x="320" y="160" width="40" height="40" as="geometry" />
        </mxCell>
        <mxCell id="DvPo4eW4fTsrVd996iuE-19" value="" style="whiteSpace=wrap;html=1;aspect=fixed;fillColor=#eeeeee;strokeColor=#36393d;" vertex="1" parent="1">
          <mxGeometry x="360" y="160" width="40" height="40" as="geometry" />
        </mxCell>
        <mxCell id="DvPo4eW4fTsrVd996iuE-20" value="2" style="whiteSpace=wrap;html=1;aspect=fixed;fillColor=#CCE5FF;" vertex="1" parent="1">
          <mxGeometry x="400" y="160" width="40" height="40" as="geometry" />
        </mxCell>
        <mxCell id="DvPo4eW4fTsrVd996iuE-21" value="3" style="whiteSpace=wrap;html=1;aspect=fixed;" vertex="1" parent="1">
          <mxGeometry x="440" y="160" width="40" height="40" as="geometry" />
        </mxCell>
        <mxCell id="DvPo4eW4fTsrVd996iuE-22" value="2" style="whiteSpace=wrap;html=1;aspect=fixed;fillColor=#CCE5FF;" vertex="1" parent="1">
          <mxGeometry x="480" y="160" width="40" height="40" as="geometry" />
        </mxCell>
        <mxCell id="DvPo4eW4fTsrVd996iuE-23" value="3" style="whiteSpace=wrap;html=1;aspect=fixed;" vertex="1" parent="1">
          <mxGeometry x="160" y="200" width="40" height="40" as="geometry" />
        </mxCell>
        <mxCell id="DvPo4eW4fTsrVd996iuE-24" value="4" style="whiteSpace=wrap;html=1;aspect=fixed;" vertex="1" parent="1">
          <mxGeometry x="200" y="200" width="40" height="40" as="geometry" />
        </mxCell>
        <mxCell id="DvPo4eW4fTsrVd996iuE-25" value="4" style="whiteSpace=wrap;html=1;aspect=fixed;" vertex="1" parent="1">
          <mxGeometry x="240" y="200" width="40" height="40" as="geometry" />
        </mxCell>
        <mxCell id="DvPo4eW4fTsrVd996iuE-26" value="2" style="whiteSpace=wrap;html=1;aspect=fixed;fillColor=#CCE5FF;" vertex="1" parent="1">
          <mxGeometry x="280" y="200" width="40" height="40" as="geometry" />
        </mxCell>
        <mxCell id="DvPo4eW4fTsrVd996iuE-27" value="" style="whiteSpace=wrap;html=1;aspect=fixed;fillColor=#eeeeee;strokeColor=#36393d;" vertex="1" parent="1">
          <mxGeometry x="320" y="200" width="40" height="40" as="geometry" />
        </mxCell>
        <mxCell id="DvPo4eW4fTsrVd996iuE-28" value="2" style="whiteSpace=wrap;html=1;aspect=fixed;fillColor=#CCE5FF;" vertex="1" parent="1">
          <mxGeometry x="360" y="200" width="40" height="40" as="geometry" />
        </mxCell>
        <mxCell id="DvPo4eW4fTsrVd996iuE-29" value="4" style="whiteSpace=wrap;html=1;aspect=fixed;" vertex="1" parent="1">
          <mxGeometry x="400" y="200" width="40" height="40" as="geometry" />
        </mxCell>
        <mxCell id="DvPo4eW4fTsrVd996iuE-30" value="4" style="whiteSpace=wrap;html=1;aspect=fixed;" vertex="1" parent="1">
          <mxGeometry x="440" y="200" width="40" height="40" as="geometry" />
        </mxCell>
        <mxCell id="DvPo4eW4fTsrVd996iuE-31" value="3" style="whiteSpace=wrap;html=1;aspect=fixed;" vertex="1" parent="1">
          <mxGeometry x="480" y="200" width="40" height="40" as="geometry" />
        </mxCell>
        <mxCell id="DvPo4eW4fTsrVd996iuE-32" value="2" style="whiteSpace=wrap;html=1;aspect=fixed;fillColor=#CCE5FF;" vertex="1" parent="1">
          <mxGeometry x="160" y="240" width="40" height="40" as="geometry" />
        </mxCell>
        <mxCell id="DvPo4eW4fTsrVd996iuE-33" value="4" style="whiteSpace=wrap;html=1;aspect=fixed;" vertex="1" parent="1">
          <mxGeometry x="200" y="240" width="40" height="40" as="geometry" />
        </mxCell>
        <mxCell id="DvPo4eW4fTsrVd996iuE-34" value="4" style="whiteSpace=wrap;html=1;aspect=fixed;" vertex="1" parent="1">
          <mxGeometry x="240" y="240" width="40" height="40" as="geometry" />
        </mxCell>
        <mxCell id="DvPo4eW4fTsrVd996iuE-35" value="4" style="whiteSpace=wrap;html=1;aspect=fixed;" vertex="1" parent="1">
          <mxGeometry x="280" y="240" width="40" height="40" as="geometry" />
        </mxCell>
        <mxCell id="DvPo4eW4fTsrVd996iuE-36" value="3" style="whiteSpace=wrap;html=1;aspect=fixed;" vertex="1" parent="1">
          <mxGeometry x="320" y="240" width="40" height="40" as="geometry" />
        </mxCell>
        <mxCell id="DvPo4eW4fTsrVd996iuE-37" value="4" style="whiteSpace=wrap;html=1;aspect=fixed;" vertex="1" parent="1">
          <mxGeometry x="360" y="240" width="40" height="40" as="geometry" />
        </mxCell>
        <mxCell id="DvPo4eW4fTsrVd996iuE-38" value="4" style="whiteSpace=wrap;html=1;aspect=fixed;" vertex="1" parent="1">
          <mxGeometry x="400" y="240" width="40" height="40" as="geometry" />
        </mxCell>
        <mxCell id="DvPo4eW4fTsrVd996iuE-39" value="4" style="whiteSpace=wrap;html=1;aspect=fixed;" vertex="1" parent="1">
          <mxGeometry x="440" y="240" width="40" height="40" as="geometry" />
        </mxCell>
        <mxCell id="DvPo4eW4fTsrVd996iuE-40" value="2" style="whiteSpace=wrap;html=1;aspect=fixed;fillColor=#CCE5FF;" vertex="1" parent="1">
          <mxGeometry x="480" y="240" width="40" height="40" as="geometry" />
        </mxCell>
        <mxCell id="DvPo4eW4fTsrVd996iuE-41" value="" style="whiteSpace=wrap;html=1;aspect=fixed;fillColor=#eeeeee;strokeColor=#36393d;" vertex="1" parent="1">
          <mxGeometry x="160" y="280" width="40" height="40" as="geometry" />
        </mxCell>
        <mxCell id="DvPo4eW4fTsrVd996iuE-42" value="2" style="whiteSpace=wrap;html=1;aspect=fixed;fillColor=#CCE5FF;" vertex="1" parent="1">
          <mxGeometry x="200" y="280" width="40" height="40" as="geometry" />
        </mxCell>
        <mxCell id="DvPo4eW4fTsrVd996iuE-43" value="4" style="whiteSpace=wrap;html=1;aspect=fixed;" vertex="1" parent="1">
          <mxGeometry x="240" y="280" width="40" height="40" as="geometry" />
        </mxCell>
        <mxCell id="DvPo4eW4fTsrVd996iuE-44" value="4" style="whiteSpace=wrap;html=1;aspect=fixed;" vertex="1" parent="1">
          <mxGeometry x="280" y="280" width="40" height="40" as="geometry" />
        </mxCell>
        <mxCell id="DvPo4eW4fTsrVd996iuE-45" value="3" style="whiteSpace=wrap;html=1;aspect=fixed;" vertex="1" parent="1">
          <mxGeometry x="320" y="280" width="40" height="40" as="geometry" />
        </mxCell>
        <mxCell id="DvPo4eW4fTsrVd996iuE-46" value="4" style="whiteSpace=wrap;html=1;aspect=fixed;" vertex="1" parent="1">
          <mxGeometry x="360" y="280" width="40" height="40" as="geometry" />
        </mxCell>
        <mxCell id="DvPo4eW4fTsrVd996iuE-47" value="4" style="whiteSpace=wrap;html=1;aspect=fixed;" vertex="1" parent="1">
          <mxGeometry x="400" y="280" width="40" height="40" as="geometry" />
        </mxCell>
        <mxCell id="DvPo4eW4fTsrVd996iuE-48" value="2" style="whiteSpace=wrap;html=1;aspect=fixed;fillColor=#CCE5FF;" vertex="1" parent="1">
          <mxGeometry x="440" y="280" width="40" height="40" as="geometry" />
        </mxCell>
        <mxCell id="DvPo4eW4fTsrVd996iuE-49" value="" style="whiteSpace=wrap;html=1;aspect=fixed;fillColor=#eeeeee;strokeColor=#36393d;" vertex="1" parent="1">
          <mxGeometry x="480" y="280" width="40" height="40" as="geometry" />
        </mxCell>
        <mxCell id="DvPo4eW4fTsrVd996iuE-50" value="" style="whiteSpace=wrap;html=1;aspect=fixed;fillColor=#eeeeee;strokeColor=#36393d;" vertex="1" parent="1">
          <mxGeometry x="160" y="320" width="40" height="40" as="geometry" />
        </mxCell>
        <mxCell id="DvPo4eW4fTsrVd996iuE-51" value="" style="whiteSpace=wrap;html=1;aspect=fixed;fillColor=#eeeeee;strokeColor=#36393d;" vertex="1" parent="1">
          <mxGeometry x="200" y="320" width="40" height="40" as="geometry" />
        </mxCell>
        <mxCell id="DvPo4eW4fTsrVd996iuE-52" value="3" style="whiteSpace=wrap;html=1;aspect=fixed;" vertex="1" parent="1">
          <mxGeometry x="240" y="320" width="40" height="40" as="geometry" />
        </mxCell>
        <mxCell id="DvPo4eW4fTsrVd996iuE-53" value="3" style="whiteSpace=wrap;html=1;aspect=fixed;" vertex="1" parent="1">
          <mxGeometry x="280" y="320" width="40" height="40" as="geometry" />
        </mxCell>
        <mxCell id="DvPo4eW4fTsrVd996iuE-54" value="" style="whiteSpace=wrap;html=1;aspect=fixed;fillColor=#ffcc99;strokeColor=#36393d;" vertex="1" parent="1">
          <mxGeometry x="320" y="320" width="40" height="40" as="geometry" />
        </mxCell>
        <mxCell id="DvPo4eW4fTsrVd996iuE-55" value="3" style="whiteSpace=wrap;html=1;aspect=fixed;" vertex="1" parent="1">
          <mxGeometry x="360" y="320" width="40" height="40" as="geometry" />
        </mxCell>
        <mxCell id="DvPo4eW4fTsrVd996iuE-56" value="3" style="whiteSpace=wrap;html=1;aspect=fixed;" vertex="1" parent="1">
          <mxGeometry x="400" y="320" width="40" height="40" as="geometry" />
        </mxCell>
        <mxCell id="DvPo4eW4fTsrVd996iuE-57" value="" style="whiteSpace=wrap;html=1;aspect=fixed;fillColor=#eeeeee;strokeColor=#36393d;" vertex="1" parent="1">
          <mxGeometry x="440" y="320" width="40" height="40" as="geometry" />
        </mxCell>
        <mxCell id="DvPo4eW4fTsrVd996iuE-58" value="" style="whiteSpace=wrap;html=1;aspect=fixed;fillColor=#eeeeee;strokeColor=#36393d;" vertex="1" parent="1">
          <mxGeometry x="480" y="320" width="40" height="40" as="geometry" />
        </mxCell>
        <mxCell id="DvPo4eW4fTsrVd996iuE-59" value="" style="whiteSpace=wrap;html=1;aspect=fixed;fillColor=#eeeeee;strokeColor=#36393d;" vertex="1" parent="1">
          <mxGeometry x="160" y="360" width="40" height="40" as="geometry" />
        </mxCell>
        <mxCell id="DvPo4eW4fTsrVd996iuE-60" value="2" style="whiteSpace=wrap;html=1;aspect=fixed;fillColor=#CCE5FF;" vertex="1" parent="1">
          <mxGeometry x="200" y="360" width="40" height="40" as="geometry" />
        </mxCell>
        <mxCell id="DvPo4eW4fTsrVd996iuE-61" value="4" style="whiteSpace=wrap;html=1;aspect=fixed;" vertex="1" parent="1">
          <mxGeometry x="240" y="360" width="40" height="40" as="geometry" />
        </mxCell>
        <mxCell id="DvPo4eW4fTsrVd996iuE-62" value="4" style="whiteSpace=wrap;html=1;aspect=fixed;" vertex="1" parent="1">
          <mxGeometry x="280" y="360" width="40" height="40" as="geometry" />
        </mxCell>
        <mxCell id="DvPo4eW4fTsrVd996iuE-63" value="3" style="whiteSpace=wrap;html=1;aspect=fixed;" vertex="1" parent="1">
          <mxGeometry x="320" y="360" width="40" height="40" as="geometry" />
        </mxCell>
        <mxCell id="DvPo4eW4fTsrVd996iuE-64" value="4" style="whiteSpace=wrap;html=1;aspect=fixed;" vertex="1" parent="1">
          <mxGeometry x="360" y="360" width="40" height="40" as="geometry" />
        </mxCell>
        <mxCell id="DvPo4eW4fTsrVd996iuE-65" value="4" style="whiteSpace=wrap;html=1;aspect=fixed;" vertex="1" parent="1">
          <mxGeometry x="400" y="360" width="40" height="40" as="geometry" />
        </mxCell>
        <mxCell id="DvPo4eW4fTsrVd996iuE-66" value="2" style="whiteSpace=wrap;html=1;aspect=fixed;fillColor=#CCE5FF;" vertex="1" parent="1">
          <mxGeometry x="440" y="360" width="40" height="40" as="geometry" />
        </mxCell>
        <mxCell id="DvPo4eW4fTsrVd996iuE-67" value="" style="whiteSpace=wrap;html=1;aspect=fixed;fillColor=#eeeeee;strokeColor=#36393d;" vertex="1" parent="1">
          <mxGeometry x="480" y="360" width="40" height="40" as="geometry" />
        </mxCell>
        <mxCell id="DvPo4eW4fTsrVd996iuE-68" value="2" style="whiteSpace=wrap;html=1;aspect=fixed;fillColor=#CCE5FF;" vertex="1" parent="1">
          <mxGeometry x="160" y="400" width="40" height="40" as="geometry" />
        </mxCell>
        <mxCell id="DvPo4eW4fTsrVd996iuE-69" value="4" style="whiteSpace=wrap;html=1;aspect=fixed;" vertex="1" parent="1">
          <mxGeometry x="200" y="400" width="40" height="40" as="geometry" />
        </mxCell>
        <mxCell id="DvPo4eW4fTsrVd996iuE-70" value="4" style="whiteSpace=wrap;html=1;aspect=fixed;" vertex="1" parent="1">
          <mxGeometry x="240" y="400" width="40" height="40" as="geometry" />
        </mxCell>
        <mxCell id="DvPo4eW4fTsrVd996iuE-71" value="4" style="whiteSpace=wrap;html=1;aspect=fixed;" vertex="1" parent="1">
          <mxGeometry x="280" y="400" width="40" height="40" as="geometry" />
        </mxCell>
        <mxCell id="DvPo4eW4fTsrVd996iuE-72" value="3" style="whiteSpace=wrap;html=1;aspect=fixed;" vertex="1" parent="1">
          <mxGeometry x="320" y="400" width="40" height="40" as="geometry" />
        </mxCell>
        <mxCell id="DvPo4eW4fTsrVd996iuE-73" value="4" style="whiteSpace=wrap;html=1;aspect=fixed;" vertex="1" parent="1">
          <mxGeometry x="360" y="400" width="40" height="40" as="geometry" />
        </mxCell>
        <mxCell id="DvPo4eW4fTsrVd996iuE-74" value="4" style="whiteSpace=wrap;html=1;aspect=fixed;" vertex="1" parent="1">
          <mxGeometry x="400" y="400" width="40" height="40" as="geometry" />
        </mxCell>
        <mxCell id="DvPo4eW4fTsrVd996iuE-75" value="4" style="whiteSpace=wrap;html=1;aspect=fixed;" vertex="1" parent="1">
          <mxGeometry x="440" y="400" width="40" height="40" as="geometry" />
        </mxCell>
        <mxCell id="DvPo4eW4fTsrVd996iuE-76" value="2" style="whiteSpace=wrap;html=1;aspect=fixed;fillColor=#CCE5FF;" vertex="1" parent="1">
          <mxGeometry x="480" y="400" width="40" height="40" as="geometry" />
        </mxCell>
        <mxCell id="DvPo4eW4fTsrVd996iuE-77" value="3" style="whiteSpace=wrap;html=1;aspect=fixed;" vertex="1" parent="1">
          <mxGeometry x="160" y="440" width="40" height="40" as="geometry" />
        </mxCell>
        <mxCell id="DvPo4eW4fTsrVd996iuE-78" value="4" style="whiteSpace=wrap;html=1;aspect=fixed;" vertex="1" parent="1">
          <mxGeometry x="200" y="440" width="40" height="40" as="geometry" />
        </mxCell>
        <mxCell id="DvPo4eW4fTsrVd996iuE-79" value="4" style="whiteSpace=wrap;html=1;aspect=fixed;" vertex="1" parent="1">
          <mxGeometry x="240" y="440" width="40" height="40" as="geometry" />
        </mxCell>
        <mxCell id="DvPo4eW4fTsrVd996iuE-80" value="2" style="whiteSpace=wrap;html=1;aspect=fixed;fillColor=#CCE5FF;" vertex="1" parent="1">
          <mxGeometry x="280" y="440" width="40" height="40" as="geometry" />
        </mxCell>
        <mxCell id="DvPo4eW4fTsrVd996iuE-81" value="" style="whiteSpace=wrap;html=1;aspect=fixed;fillColor=#eeeeee;strokeColor=#36393d;" vertex="1" parent="1">
          <mxGeometry x="320" y="440" width="40" height="40" as="geometry" />
        </mxCell>
        <mxCell id="DvPo4eW4fTsrVd996iuE-82" value="2" style="whiteSpace=wrap;html=1;aspect=fixed;fillColor=#CCE5FF;" vertex="1" parent="1">
          <mxGeometry x="360" y="440" width="40" height="40" as="geometry" />
        </mxCell>
        <mxCell id="DvPo4eW4fTsrVd996iuE-83" value="4" style="whiteSpace=wrap;html=1;aspect=fixed;" vertex="1" parent="1">
          <mxGeometry x="400" y="440" width="40" height="40" as="geometry" />
        </mxCell>
        <mxCell id="DvPo4eW4fTsrVd996iuE-84" value="4" style="whiteSpace=wrap;html=1;aspect=fixed;" vertex="1" parent="1">
          <mxGeometry x="440" y="440" width="40" height="40" as="geometry" />
        </mxCell>
        <mxCell id="DvPo4eW4fTsrVd996iuE-85" value="3" style="whiteSpace=wrap;html=1;aspect=fixed;" vertex="1" parent="1">
          <mxGeometry x="480" y="440" width="40" height="40" as="geometry" />
        </mxCell>
        <mxCell id="DvPo4eW4fTsrVd996iuE-86" value="2" style="whiteSpace=wrap;html=1;aspect=fixed;fillColor=#CCE5FF;" vertex="1" parent="1">
          <mxGeometry x="160" y="480" width="40" height="40" as="geometry" />
        </mxCell>
        <mxCell id="DvPo4eW4fTsrVd996iuE-87" value="3" style="whiteSpace=wrap;html=1;aspect=fixed;" vertex="1" parent="1">
          <mxGeometry x="200" y="480" width="40" height="40" as="geometry" />
        </mxCell>
        <mxCell id="DvPo4eW4fTsrVd996iuE-88" value="2" style="whiteSpace=wrap;html=1;aspect=fixed;fillColor=#CCE5FF;" vertex="1" parent="1">
          <mxGeometry x="240" y="480" width="40" height="40" as="geometry" />
        </mxCell>
        <mxCell id="DvPo4eW4fTsrVd996iuE-89" value="" style="whiteSpace=wrap;html=1;aspect=fixed;fillColor=#eeeeee;strokeColor=#36393d;" vertex="1" parent="1">
          <mxGeometry x="280" y="480" width="40" height="40" as="geometry" />
        </mxCell>
        <mxCell id="DvPo4eW4fTsrVd996iuE-90" value="" style="whiteSpace=wrap;html=1;aspect=fixed;fillColor=#eeeeee;strokeColor=#36393d;" vertex="1" parent="1">
          <mxGeometry x="320" y="480" width="40" height="40" as="geometry" />
        </mxCell>
        <mxCell id="DvPo4eW4fTsrVd996iuE-91" value="" style="whiteSpace=wrap;html=1;aspect=fixed;fillColor=#eeeeee;strokeColor=#36393d;" vertex="1" parent="1">
          <mxGeometry x="360" y="480" width="40" height="40" as="geometry" />
        </mxCell>
        <mxCell id="DvPo4eW4fTsrVd996iuE-92" value="2" style="whiteSpace=wrap;html=1;aspect=fixed;fillColor=#CCE5FF;" vertex="1" parent="1">
          <mxGeometry x="400" y="480" width="40" height="40" as="geometry" />
        </mxCell>
        <mxCell id="DvPo4eW4fTsrVd996iuE-93" value="3" style="whiteSpace=wrap;html=1;aspect=fixed;" vertex="1" parent="1">
          <mxGeometry x="440" y="480" width="40" height="40" as="geometry" />
        </mxCell>
        <mxCell id="DvPo4eW4fTsrVd996iuE-94" value="2" style="whiteSpace=wrap;html=1;aspect=fixed;fillColor=#CCE5FF;" vertex="1" parent="1">
          <mxGeometry x="480" y="480" width="40" height="40" as="geometry" />
        </mxCell>
        <mxCell id="DvPo4eW4fTsrVd996iuE-96" value="" style="shape=image;html=1;verticalAlign=top;verticalLabelPosition=bottom;labelBackgroundColor=#ffffff;imageAspect=0;aspect=fixed;image=https://cdn3.iconfinder.com/data/icons/travelling-icon-set-ii-part/800/tent-128.png" vertex="1" parent="1">
          <mxGeometry x="450" y="330" width="20" height="20" as="geometry" />
        </mxCell>
        <mxCell id="DvPo4eW4fTsrVd996iuE-99" value="" style="shape=image;html=1;verticalAlign=top;verticalLabelPosition=bottom;labelBackgroundColor=#ffffff;imageAspect=0;aspect=fixed;image=https://cdn3.iconfinder.com/data/icons/halloween-36/64/_Castle-128.png" vertex="1" parent="1">
          <mxGeometry x="330" y="330" width="20" height="20" as="geometry" />
        </mxCell>
        <mxCell id="DvPo4eW4fTsrVd996iuE-100" value="" style="shape=image;html=1;verticalAlign=top;verticalLabelPosition=bottom;labelBackgroundColor=#ffffff;imageAspect=0;aspect=fixed;image=https://cdn3.iconfinder.com/data/icons/travelling-icon-set-ii-part/800/tent-128.png" vertex="1" parent="1">
          <mxGeometry x="330" y="450" width="20" height="20" as="geometry" />
        </mxCell>
        <mxCell id="DvPo4eW4fTsrVd996iuE-102" value="" style="shape=image;html=1;verticalAlign=top;verticalLabelPosition=bottom;labelBackgroundColor=#ffffff;imageAspect=0;aspect=fixed;image=https://cdn3.iconfinder.com/data/icons/travelling-icon-set-ii-part/800/tent-128.png" vertex="1" parent="1">
          <mxGeometry x="210" y="330" width="20" height="20" as="geometry" />
        </mxCell>
        <mxCell id="DvPo4eW4fTsrVd996iuE-103" value="" style="shape=image;html=1;verticalAlign=top;verticalLabelPosition=bottom;labelBackgroundColor=#ffffff;imageAspect=0;aspect=fixed;image=https://cdn3.iconfinder.com/data/icons/travelling-icon-set-ii-part/800/tent-128.png" vertex="1" parent="1">
          <mxGeometry x="330" y="210" width="20" height="20" as="geometry" />
        </mxCell>
        <mxCell id="DvPo4eW4fTsrVd996iuE-104" value="" style="shape=image;html=1;verticalAlign=top;verticalLabelPosition=bottom;labelBackgroundColor=#ffffff;imageAspect=0;aspect=fixed;image=https://cdn3.iconfinder.com/data/icons/travelling-icon-set-ii-part/800/tent-128.png" vertex="1" parent="1">
          <mxGeometry x="290" y="170" width="20" height="20" as="geometry" />
        </mxCell>
        <mxCell id="DvPo4eW4fTsrVd996iuE-105" value="" style="shape=image;html=1;verticalAlign=top;verticalLabelPosition=bottom;labelBackgroundColor=#ffffff;imageAspect=0;aspect=fixed;image=https://cdn3.iconfinder.com/data/icons/travelling-icon-set-ii-part/800/tent-128.png" vertex="1" parent="1">
          <mxGeometry x="330" y="170" width="20" height="20" as="geometry" />
        </mxCell>
        <mxCell id="DvPo4eW4fTsrVd996iuE-106" value="" style="shape=image;html=1;verticalAlign=top;verticalLabelPosition=bottom;labelBackgroundColor=#ffffff;imageAspect=0;aspect=fixed;image=https://cdn3.iconfinder.com/data/icons/travelling-icon-set-ii-part/800/tent-128.png" vertex="1" parent="1">
          <mxGeometry x="370" y="170" width="20" height="20" as="geometry" />
        </mxCell>
        <mxCell id="DvPo4eW4fTsrVd996iuE-107" value="" style="shape=image;html=1;verticalAlign=top;verticalLabelPosition=bottom;labelBackgroundColor=#ffffff;imageAspect=0;aspect=fixed;image=https://cdn3.iconfinder.com/data/icons/travelling-icon-set-ii-part/800/tent-128.png" vertex="1" parent="1">
          <mxGeometry x="290" y="490" width="20" height="20" as="geometry" />
        </mxCell>
        <mxCell id="DvPo4eW4fTsrVd996iuE-108" value="" style="shape=image;html=1;verticalAlign=top;verticalLabelPosition=bottom;labelBackgroundColor=#ffffff;imageAspect=0;aspect=fixed;image=https://cdn3.iconfinder.com/data/icons/travelling-icon-set-ii-part/800/tent-128.png" vertex="1" parent="1">
          <mxGeometry x="330" y="490" width="20" height="20" as="geometry" />
        </mxCell>
        <mxCell id="DvPo4eW4fTsrVd996iuE-109" value="" style="shape=image;html=1;verticalAlign=top;verticalLabelPosition=bottom;labelBackgroundColor=#ffffff;imageAspect=0;aspect=fixed;image=https://cdn3.iconfinder.com/data/icons/travelling-icon-set-ii-part/800/tent-128.png" vertex="1" parent="1">
          <mxGeometry x="370" y="490" width="20" height="20" as="geometry" />
        </mxCell>
        <mxCell id="DvPo4eW4fTsrVd996iuE-110" value="" style="shape=image;html=1;verticalAlign=top;verticalLabelPosition=bottom;labelBackgroundColor=#ffffff;imageAspect=0;aspect=fixed;image=https://cdn3.iconfinder.com/data/icons/travelling-icon-set-ii-part/800/tent-128.png" vertex="1" parent="1">
          <mxGeometry x="170" y="290" width="20" height="20" as="geometry" />
        </mxCell>
        <mxCell id="DvPo4eW4fTsrVd996iuE-111" value="" style="shape=image;html=1;verticalAlign=top;verticalLabelPosition=bottom;labelBackgroundColor=#ffffff;imageAspect=0;aspect=fixed;image=https://cdn3.iconfinder.com/data/icons/travelling-icon-set-ii-part/800/tent-128.png" vertex="1" parent="1">
          <mxGeometry x="170" y="330" width="20" height="20" as="geometry" />
        </mxCell>
        <mxCell id="DvPo4eW4fTsrVd996iuE-112" value="" style="shape=image;html=1;verticalAlign=top;verticalLabelPosition=bottom;labelBackgroundColor=#ffffff;imageAspect=0;aspect=fixed;image=https://cdn3.iconfinder.com/data/icons/travelling-icon-set-ii-part/800/tent-128.png" vertex="1" parent="1">
          <mxGeometry x="170" y="370" width="20" height="20" as="geometry" />
        </mxCell>
        <mxCell id="DvPo4eW4fTsrVd996iuE-113" value="" style="shape=image;html=1;verticalAlign=top;verticalLabelPosition=bottom;labelBackgroundColor=#ffffff;imageAspect=0;aspect=fixed;image=https://cdn3.iconfinder.com/data/icons/travelling-icon-set-ii-part/800/tent-128.png" vertex="1" parent="1">
          <mxGeometry x="490" y="290" width="20" height="20" as="geometry" />
        </mxCell>
        <mxCell id="DvPo4eW4fTsrVd996iuE-114" value="" style="shape=image;html=1;verticalAlign=top;verticalLabelPosition=bottom;labelBackgroundColor=#ffffff;imageAspect=0;aspect=fixed;image=https://cdn3.iconfinder.com/data/icons/travelling-icon-set-ii-part/800/tent-128.png" vertex="1" parent="1">
          <mxGeometry x="490" y="330" width="20" height="20" as="geometry" />
        </mxCell>
        <mxCell id="DvPo4eW4fTsrVd996iuE-115" value="" style="shape=image;html=1;verticalAlign=top;verticalLabelPosition=bottom;labelBackgroundColor=#ffffff;imageAspect=0;aspect=fixed;image=https://cdn3.iconfinder.com/data/icons/travelling-icon-set-ii-part/800/tent-128.png" vertex="1" parent="1">
          <mxGeometry x="490" y="370" width="20" height="20" as="geometry" />
        </mxCell>
        <mxCell id="DvPo4eW4fTsrVd996iuE-116" value="" style="whiteSpace=wrap;html=1;aspect=fixed;" vertex="1" parent="1">
          <mxGeometry x="560" y="160" width="40" height="40" as="geometry" />
        </mxCell>
        <mxCell id="DvPo4eW4fTsrVd996iuE-117" value="" style="whiteSpace=wrap;html=1;aspect=fixed;" vertex="1" parent="1">
          <mxGeometry x="600" y="160" width="40" height="40" as="geometry" />
        </mxCell>
        <mxCell id="DvPo4eW4fTsrVd996iuE-118" value="" style="whiteSpace=wrap;html=1;aspect=fixed;" vertex="1" parent="1">
          <mxGeometry x="640" y="160" width="40" height="40" as="geometry" />
        </mxCell>
        <mxCell id="DvPo4eW4fTsrVd996iuE-119" value="" style="whiteSpace=wrap;html=1;aspect=fixed;fillColor=#eeeeee;strokeColor=#36393d;" vertex="1" parent="1">
          <mxGeometry x="680" y="160" width="40" height="40" as="geometry" />
        </mxCell>
        <mxCell id="DvPo4eW4fTsrVd996iuE-120" value="" style="whiteSpace=wrap;html=1;aspect=fixed;fillColor=#eeeeee;strokeColor=#36393d;" vertex="1" parent="1">
          <mxGeometry x="720" y="160" width="40" height="40" as="geometry" />
        </mxCell>
        <mxCell id="DvPo4eW4fTsrVd996iuE-121" value="" style="whiteSpace=wrap;html=1;aspect=fixed;fillColor=#eeeeee;strokeColor=#36393d;" vertex="1" parent="1">
          <mxGeometry x="760" y="160" width="40" height="40" as="geometry" />
        </mxCell>
        <mxCell id="DvPo4eW4fTsrVd996iuE-122" value="" style="whiteSpace=wrap;html=1;aspect=fixed;" vertex="1" parent="1">
          <mxGeometry x="800" y="160" width="40" height="40" as="geometry" />
        </mxCell>
        <mxCell id="DvPo4eW4fTsrVd996iuE-123" value="" style="whiteSpace=wrap;html=1;aspect=fixed;" vertex="1" parent="1">
          <mxGeometry x="840" y="160" width="40" height="40" as="geometry" />
        </mxCell>
        <mxCell id="DvPo4eW4fTsrVd996iuE-124" value="" style="whiteSpace=wrap;html=1;aspect=fixed;" vertex="1" parent="1">
          <mxGeometry x="880" y="160" width="40" height="40" as="geometry" />
        </mxCell>
        <mxCell id="DvPo4eW4fTsrVd996iuE-125" value="" style="whiteSpace=wrap;html=1;aspect=fixed;" vertex="1" parent="1">
          <mxGeometry x="560" y="200" width="40" height="40" as="geometry" />
        </mxCell>
        <mxCell id="DvPo4eW4fTsrVd996iuE-126" value="" style="whiteSpace=wrap;html=1;aspect=fixed;" vertex="1" parent="1">
          <mxGeometry x="600" y="200" width="40" height="40" as="geometry" />
        </mxCell>
        <mxCell id="DvPo4eW4fTsrVd996iuE-127" value="" style="whiteSpace=wrap;html=1;aspect=fixed;" vertex="1" parent="1">
          <mxGeometry x="640" y="200" width="40" height="40" as="geometry" />
        </mxCell>
        <mxCell id="DvPo4eW4fTsrVd996iuE-128" value="" style="whiteSpace=wrap;html=1;aspect=fixed;" vertex="1" parent="1">
          <mxGeometry x="680" y="200" width="40" height="40" as="geometry" />
        </mxCell>
        <mxCell id="DvPo4eW4fTsrVd996iuE-129" value="" style="whiteSpace=wrap;html=1;aspect=fixed;fillColor=#eeeeee;strokeColor=#36393d;" vertex="1" parent="1">
          <mxGeometry x="720" y="200" width="40" height="40" as="geometry" />
        </mxCell>
        <mxCell id="DvPo4eW4fTsrVd996iuE-130" value="" style="whiteSpace=wrap;html=1;aspect=fixed;" vertex="1" parent="1">
          <mxGeometry x="760" y="200" width="40" height="40" as="geometry" />
        </mxCell>
        <mxCell id="DvPo4eW4fTsrVd996iuE-131" value="" style="whiteSpace=wrap;html=1;aspect=fixed;" vertex="1" parent="1">
          <mxGeometry x="800" y="200" width="40" height="40" as="geometry" />
        </mxCell>
        <mxCell id="DvPo4eW4fTsrVd996iuE-132" value="" style="whiteSpace=wrap;html=1;aspect=fixed;" vertex="1" parent="1">
          <mxGeometry x="840" y="200" width="40" height="40" as="geometry" />
        </mxCell>
        <mxCell id="DvPo4eW4fTsrVd996iuE-133" value="" style="whiteSpace=wrap;html=1;aspect=fixed;" vertex="1" parent="1">
          <mxGeometry x="880" y="200" width="40" height="40" as="geometry" />
        </mxCell>
        <mxCell id="DvPo4eW4fTsrVd996iuE-134" value="" style="whiteSpace=wrap;html=1;aspect=fixed;" vertex="1" parent="1">
          <mxGeometry x="560" y="240" width="40" height="40" as="geometry" />
        </mxCell>
        <mxCell id="DvPo4eW4fTsrVd996iuE-135" value="" style="whiteSpace=wrap;html=1;aspect=fixed;" vertex="1" parent="1">
          <mxGeometry x="600" y="240" width="40" height="40" as="geometry" />
        </mxCell>
        <mxCell id="DvPo4eW4fTsrVd996iuE-136" value="" style="whiteSpace=wrap;html=1;aspect=fixed;" vertex="1" parent="1">
          <mxGeometry x="640" y="240" width="40" height="40" as="geometry" />
        </mxCell>
        <mxCell id="DvPo4eW4fTsrVd996iuE-137" value="" style="whiteSpace=wrap;html=1;aspect=fixed;" vertex="1" parent="1">
          <mxGeometry x="680" y="240" width="40" height="40" as="geometry" />
        </mxCell>
        <mxCell id="DvPo4eW4fTsrVd996iuE-138" value="" style="whiteSpace=wrap;html=1;aspect=fixed;" vertex="1" parent="1">
          <mxGeometry x="720" y="240" width="40" height="40" as="geometry" />
        </mxCell>
        <mxCell id="DvPo4eW4fTsrVd996iuE-139" value="" style="whiteSpace=wrap;html=1;aspect=fixed;" vertex="1" parent="1">
          <mxGeometry x="760" y="240" width="40" height="40" as="geometry" />
        </mxCell>
        <mxCell id="DvPo4eW4fTsrVd996iuE-140" value="" style="whiteSpace=wrap;html=1;aspect=fixed;" vertex="1" parent="1">
          <mxGeometry x="800" y="240" width="40" height="40" as="geometry" />
        </mxCell>
        <mxCell id="DvPo4eW4fTsrVd996iuE-141" value="" style="whiteSpace=wrap;html=1;aspect=fixed;" vertex="1" parent="1">
          <mxGeometry x="840" y="240" width="40" height="40" as="geometry" />
        </mxCell>
        <mxCell id="DvPo4eW4fTsrVd996iuE-142" value="" style="whiteSpace=wrap;html=1;aspect=fixed;" vertex="1" parent="1">
          <mxGeometry x="880" y="240" width="40" height="40" as="geometry" />
        </mxCell>
        <mxCell id="DvPo4eW4fTsrVd996iuE-143" value="" style="whiteSpace=wrap;html=1;aspect=fixed;fillColor=#eeeeee;strokeColor=#36393d;" vertex="1" parent="1">
          <mxGeometry x="560" y="280" width="40" height="40" as="geometry" />
        </mxCell>
        <mxCell id="DvPo4eW4fTsrVd996iuE-144" value="" style="whiteSpace=wrap;html=1;aspect=fixed;" vertex="1" parent="1">
          <mxGeometry x="600" y="280" width="40" height="40" as="geometry" />
        </mxCell>
        <mxCell id="DvPo4eW4fTsrVd996iuE-145" value="" style="whiteSpace=wrap;html=1;aspect=fixed;" vertex="1" parent="1">
          <mxGeometry x="640" y="280" width="40" height="40" as="geometry" />
        </mxCell>
        <mxCell id="DvPo4eW4fTsrVd996iuE-146" value="" style="whiteSpace=wrap;html=1;aspect=fixed;" vertex="1" parent="1">
          <mxGeometry x="680" y="280" width="40" height="40" as="geometry" />
        </mxCell>
        <mxCell id="DvPo4eW4fTsrVd996iuE-147" value="" style="whiteSpace=wrap;html=1;aspect=fixed;" vertex="1" parent="1">
          <mxGeometry x="720" y="280" width="40" height="40" as="geometry" />
        </mxCell>
        <mxCell id="DvPo4eW4fTsrVd996iuE-148" value="" style="whiteSpace=wrap;html=1;aspect=fixed;" vertex="1" parent="1">
          <mxGeometry x="760" y="280" width="40" height="40" as="geometry" />
        </mxCell>
        <mxCell id="DvPo4eW4fTsrVd996iuE-149" value="" style="whiteSpace=wrap;html=1;aspect=fixed;" vertex="1" parent="1">
          <mxGeometry x="800" y="280" width="40" height="40" as="geometry" />
        </mxCell>
        <mxCell id="DvPo4eW4fTsrVd996iuE-150" value="" style="whiteSpace=wrap;html=1;aspect=fixed;" vertex="1" parent="1">
          <mxGeometry x="840" y="280" width="40" height="40" as="geometry" />
        </mxCell>
        <mxCell id="DvPo4eW4fTsrVd996iuE-151" value="" style="whiteSpace=wrap;html=1;aspect=fixed;fillColor=#eeeeee;strokeColor=#36393d;" vertex="1" parent="1">
          <mxGeometry x="880" y="280" width="40" height="40" as="geometry" />
        </mxCell>
        <mxCell id="DvPo4eW4fTsrVd996iuE-152" value="" style="whiteSpace=wrap;html=1;aspect=fixed;fillColor=#eeeeee;strokeColor=#36393d;" vertex="1" parent="1">
          <mxGeometry x="560" y="320" width="40" height="40" as="geometry" />
        </mxCell>
        <mxCell id="DvPo4eW4fTsrVd996iuE-153" value="" style="whiteSpace=wrap;html=1;aspect=fixed;fillColor=#eeeeee;strokeColor=#36393d;" vertex="1" parent="1">
          <mxGeometry x="600" y="320" width="40" height="40" as="geometry" />
        </mxCell>
        <mxCell id="DvPo4eW4fTsrVd996iuE-154" value="" style="whiteSpace=wrap;html=1;aspect=fixed;" vertex="1" parent="1">
          <mxGeometry x="640" y="320" width="40" height="40" as="geometry" />
        </mxCell>
        <mxCell id="DvPo4eW4fTsrVd996iuE-155" value="" style="whiteSpace=wrap;html=1;aspect=fixed;" vertex="1" parent="1">
          <mxGeometry x="680" y="320" width="40" height="40" as="geometry" />
        </mxCell>
        <mxCell id="DvPo4eW4fTsrVd996iuE-156" value="" style="whiteSpace=wrap;html=1;aspect=fixed;fillColor=#ffcc99;strokeColor=#36393d;" vertex="1" parent="1">
          <mxGeometry x="720" y="320" width="40" height="40" as="geometry" />
        </mxCell>
        <mxCell id="DvPo4eW4fTsrVd996iuE-157" value="" style="whiteSpace=wrap;html=1;aspect=fixed;" vertex="1" parent="1">
          <mxGeometry x="760" y="320" width="40" height="40" as="geometry" />
        </mxCell>
        <mxCell id="DvPo4eW4fTsrVd996iuE-158" value="" style="whiteSpace=wrap;html=1;aspect=fixed;" vertex="1" parent="1">
          <mxGeometry x="800" y="320" width="40" height="40" as="geometry" />
        </mxCell>
        <mxCell id="DvPo4eW4fTsrVd996iuE-159" value="" style="whiteSpace=wrap;html=1;aspect=fixed;fillColor=#eeeeee;strokeColor=#36393d;" vertex="1" parent="1">
          <mxGeometry x="840" y="320" width="40" height="40" as="geometry" />
        </mxCell>
        <mxCell id="DvPo4eW4fTsrVd996iuE-160" value="" style="whiteSpace=wrap;html=1;aspect=fixed;fillColor=#eeeeee;strokeColor=#36393d;" vertex="1" parent="1">
          <mxGeometry x="880" y="320" width="40" height="40" as="geometry" />
        </mxCell>
        <mxCell id="DvPo4eW4fTsrVd996iuE-161" value="" style="whiteSpace=wrap;html=1;aspect=fixed;fillColor=#eeeeee;strokeColor=#36393d;" vertex="1" parent="1">
          <mxGeometry x="560" y="360" width="40" height="40" as="geometry" />
        </mxCell>
        <mxCell id="DvPo4eW4fTsrVd996iuE-162" value="" style="whiteSpace=wrap;html=1;aspect=fixed;" vertex="1" parent="1">
          <mxGeometry x="600" y="360" width="40" height="40" as="geometry" />
        </mxCell>
        <mxCell id="DvPo4eW4fTsrVd996iuE-163" value="" style="whiteSpace=wrap;html=1;aspect=fixed;" vertex="1" parent="1">
          <mxGeometry x="640" y="360" width="40" height="40" as="geometry" />
        </mxCell>
        <mxCell id="DvPo4eW4fTsrVd996iuE-164" value="" style="whiteSpace=wrap;html=1;aspect=fixed;" vertex="1" parent="1">
          <mxGeometry x="680" y="360" width="40" height="40" as="geometry" />
        </mxCell>
        <mxCell id="DvPo4eW4fTsrVd996iuE-165" value="" style="whiteSpace=wrap;html=1;aspect=fixed;" vertex="1" parent="1">
          <mxGeometry x="720" y="360" width="40" height="40" as="geometry" />
        </mxCell>
        <mxCell id="DvPo4eW4fTsrVd996iuE-166" value="" style="whiteSpace=wrap;html=1;aspect=fixed;" vertex="1" parent="1">
          <mxGeometry x="760" y="360" width="40" height="40" as="geometry" />
        </mxCell>
        <mxCell id="DvPo4eW4fTsrVd996iuE-167" value="" style="whiteSpace=wrap;html=1;aspect=fixed;" vertex="1" parent="1">
          <mxGeometry x="800" y="360" width="40" height="40" as="geometry" />
        </mxCell>
        <mxCell id="DvPo4eW4fTsrVd996iuE-168" value="" style="whiteSpace=wrap;html=1;aspect=fixed;" vertex="1" parent="1">
          <mxGeometry x="840" y="360" width="40" height="40" as="geometry" />
        </mxCell>
        <mxCell id="DvPo4eW4fTsrVd996iuE-169" value="" style="whiteSpace=wrap;html=1;aspect=fixed;fillColor=#eeeeee;strokeColor=#36393d;" vertex="1" parent="1">
          <mxGeometry x="880" y="360" width="40" height="40" as="geometry" />
        </mxCell>
        <mxCell id="DvPo4eW4fTsrVd996iuE-170" value="" style="whiteSpace=wrap;html=1;aspect=fixed;" vertex="1" parent="1">
          <mxGeometry x="560" y="400" width="40" height="40" as="geometry" />
        </mxCell>
        <mxCell id="DvPo4eW4fTsrVd996iuE-171" value="" style="whiteSpace=wrap;html=1;aspect=fixed;" vertex="1" parent="1">
          <mxGeometry x="600" y="400" width="40" height="40" as="geometry" />
        </mxCell>
        <mxCell id="DvPo4eW4fTsrVd996iuE-172" value="" style="whiteSpace=wrap;html=1;aspect=fixed;" vertex="1" parent="1">
          <mxGeometry x="640" y="400" width="40" height="40" as="geometry" />
        </mxCell>
        <mxCell id="DvPo4eW4fTsrVd996iuE-173" value="" style="whiteSpace=wrap;html=1;aspect=fixed;" vertex="1" parent="1">
          <mxGeometry x="680" y="400" width="40" height="40" as="geometry" />
        </mxCell>
        <mxCell id="DvPo4eW4fTsrVd996iuE-174" value="" style="whiteSpace=wrap;html=1;aspect=fixed;" vertex="1" parent="1">
          <mxGeometry x="720" y="400" width="40" height="40" as="geometry" />
        </mxCell>
        <mxCell id="DvPo4eW4fTsrVd996iuE-175" value="" style="whiteSpace=wrap;html=1;aspect=fixed;" vertex="1" parent="1">
          <mxGeometry x="760" y="400" width="40" height="40" as="geometry" />
        </mxCell>
        <mxCell id="DvPo4eW4fTsrVd996iuE-176" value="" style="whiteSpace=wrap;html=1;aspect=fixed;" vertex="1" parent="1">
          <mxGeometry x="800" y="400" width="40" height="40" as="geometry" />
        </mxCell>
        <mxCell id="DvPo4eW4fTsrVd996iuE-177" value="" style="whiteSpace=wrap;html=1;aspect=fixed;" vertex="1" parent="1">
          <mxGeometry x="840" y="400" width="40" height="40" as="geometry" />
        </mxCell>
        <mxCell id="DvPo4eW4fTsrVd996iuE-178" value="" style="whiteSpace=wrap;html=1;aspect=fixed;" vertex="1" parent="1">
          <mxGeometry x="880" y="400" width="40" height="40" as="geometry" />
        </mxCell>
        <mxCell id="DvPo4eW4fTsrVd996iuE-179" value="" style="whiteSpace=wrap;html=1;aspect=fixed;" vertex="1" parent="1">
          <mxGeometry x="560" y="440" width="40" height="40" as="geometry" />
        </mxCell>
        <mxCell id="DvPo4eW4fTsrVd996iuE-180" value="" style="whiteSpace=wrap;html=1;aspect=fixed;" vertex="1" parent="1">
          <mxGeometry x="600" y="440" width="40" height="40" as="geometry" />
        </mxCell>
        <mxCell id="DvPo4eW4fTsrVd996iuE-181" value="" style="whiteSpace=wrap;html=1;aspect=fixed;" vertex="1" parent="1">
          <mxGeometry x="640" y="440" width="40" height="40" as="geometry" />
        </mxCell>
        <mxCell id="DvPo4eW4fTsrVd996iuE-182" value="" style="whiteSpace=wrap;html=1;aspect=fixed;" vertex="1" parent="1">
          <mxGeometry x="680" y="440" width="40" height="40" as="geometry" />
        </mxCell>
        <mxCell id="DvPo4eW4fTsrVd996iuE-183" value="" style="whiteSpace=wrap;html=1;aspect=fixed;fillColor=#eeeeee;strokeColor=#36393d;" vertex="1" parent="1">
          <mxGeometry x="720" y="440" width="40" height="40" as="geometry" />
        </mxCell>
        <mxCell id="DvPo4eW4fTsrVd996iuE-184" value="" style="whiteSpace=wrap;html=1;aspect=fixed;" vertex="1" parent="1">
          <mxGeometry x="760" y="440" width="40" height="40" as="geometry" />
        </mxCell>
        <mxCell id="DvPo4eW4fTsrVd996iuE-185" value="" style="whiteSpace=wrap;html=1;aspect=fixed;" vertex="1" parent="1">
          <mxGeometry x="800" y="440" width="40" height="40" as="geometry" />
        </mxCell>
        <mxCell id="DvPo4eW4fTsrVd996iuE-186" value="" style="whiteSpace=wrap;html=1;aspect=fixed;" vertex="1" parent="1">
          <mxGeometry x="840" y="440" width="40" height="40" as="geometry" />
        </mxCell>
        <mxCell id="DvPo4eW4fTsrVd996iuE-187" value="" style="whiteSpace=wrap;html=1;aspect=fixed;" vertex="1" parent="1">
          <mxGeometry x="880" y="440" width="40" height="40" as="geometry" />
        </mxCell>
        <mxCell id="DvPo4eW4fTsrVd996iuE-188" value="" style="whiteSpace=wrap;html=1;aspect=fixed;" vertex="1" parent="1">
          <mxGeometry x="560" y="480" width="40" height="40" as="geometry" />
        </mxCell>
        <mxCell id="DvPo4eW4fTsrVd996iuE-189" value="" style="whiteSpace=wrap;html=1;aspect=fixed;" vertex="1" parent="1">
          <mxGeometry x="600" y="480" width="40" height="40" as="geometry" />
        </mxCell>
        <mxCell id="DvPo4eW4fTsrVd996iuE-190" value="" style="whiteSpace=wrap;html=1;aspect=fixed;" vertex="1" parent="1">
          <mxGeometry x="640" y="480" width="40" height="40" as="geometry" />
        </mxCell>
        <mxCell id="DvPo4eW4fTsrVd996iuE-191" value="" style="whiteSpace=wrap;html=1;aspect=fixed;fillColor=#eeeeee;strokeColor=#36393d;" vertex="1" parent="1">
          <mxGeometry x="680" y="480" width="40" height="40" as="geometry" />
        </mxCell>
        <mxCell id="DvPo4eW4fTsrVd996iuE-192" value="" style="whiteSpace=wrap;html=1;aspect=fixed;fillColor=#eeeeee;strokeColor=#36393d;" vertex="1" parent="1">
          <mxGeometry x="720" y="480" width="40" height="40" as="geometry" />
        </mxCell>
        <mxCell id="DvPo4eW4fTsrVd996iuE-193" value="" style="whiteSpace=wrap;html=1;aspect=fixed;fillColor=#eeeeee;strokeColor=#36393d;" vertex="1" parent="1">
          <mxGeometry x="760" y="480" width="40" height="40" as="geometry" />
        </mxCell>
        <mxCell id="DvPo4eW4fTsrVd996iuE-194" value="" style="whiteSpace=wrap;html=1;aspect=fixed;" vertex="1" parent="1">
          <mxGeometry x="800" y="480" width="40" height="40" as="geometry" />
        </mxCell>
        <mxCell id="DvPo4eW4fTsrVd996iuE-195" value="" style="whiteSpace=wrap;html=1;aspect=fixed;" vertex="1" parent="1">
          <mxGeometry x="840" y="480" width="40" height="40" as="geometry" />
        </mxCell>
        <mxCell id="DvPo4eW4fTsrVd996iuE-196" value="" style="whiteSpace=wrap;html=1;aspect=fixed;" vertex="1" parent="1">
          <mxGeometry x="880" y="480" width="40" height="40" as="geometry" />
        </mxCell>
        <mxCell id="DvPo4eW4fTsrVd996iuE-197" value="" style="shape=image;html=1;verticalAlign=top;verticalLabelPosition=bottom;labelBackgroundColor=#ffffff;imageAspect=0;aspect=fixed;image=https://cdn3.iconfinder.com/data/icons/travelling-icon-set-ii-part/800/tent-128.png" vertex="1" parent="1">
          <mxGeometry x="850" y="330" width="20" height="20" as="geometry" />
        </mxCell>
        <mxCell id="DvPo4eW4fTsrVd996iuE-198" value="" style="shape=image;html=1;verticalAlign=top;verticalLabelPosition=bottom;labelBackgroundColor=#ffffff;imageAspect=0;aspect=fixed;image=https://cdn3.iconfinder.com/data/icons/halloween-36/64/_Castle-128.png" vertex="1" parent="1">
          <mxGeometry x="730" y="330" width="20" height="20" as="geometry" />
        </mxCell>
        <mxCell id="DvPo4eW4fTsrVd996iuE-199" value="" style="shape=image;html=1;verticalAlign=top;verticalLabelPosition=bottom;labelBackgroundColor=#ffffff;imageAspect=0;aspect=fixed;image=https://cdn3.iconfinder.com/data/icons/travelling-icon-set-ii-part/800/tent-128.png" vertex="1" parent="1">
          <mxGeometry x="730" y="450" width="20" height="20" as="geometry" />
        </mxCell>
        <mxCell id="DvPo4eW4fTsrVd996iuE-200" value="" style="shape=image;html=1;verticalAlign=top;verticalLabelPosition=bottom;labelBackgroundColor=#ffffff;imageAspect=0;aspect=fixed;image=https://cdn3.iconfinder.com/data/icons/travelling-icon-set-ii-part/800/tent-128.png" vertex="1" parent="1">
          <mxGeometry x="610" y="330" width="20" height="20" as="geometry" />
        </mxCell>
        <mxCell id="DvPo4eW4fTsrVd996iuE-201" value="" style="shape=image;html=1;verticalAlign=top;verticalLabelPosition=bottom;labelBackgroundColor=#ffffff;imageAspect=0;aspect=fixed;image=https://cdn3.iconfinder.com/data/icons/travelling-icon-set-ii-part/800/tent-128.png" vertex="1" parent="1">
          <mxGeometry x="730" y="210" width="20" height="20" as="geometry" />
        </mxCell>
        <mxCell id="DvPo4eW4fTsrVd996iuE-202" value="" style="shape=image;html=1;verticalAlign=top;verticalLabelPosition=bottom;labelBackgroundColor=#ffffff;imageAspect=0;aspect=fixed;image=https://cdn3.iconfinder.com/data/icons/travelling-icon-set-ii-part/800/tent-128.png" vertex="1" parent="1">
          <mxGeometry x="690" y="170" width="20" height="20" as="geometry" />
        </mxCell>
        <mxCell id="DvPo4eW4fTsrVd996iuE-203" value="" style="shape=image;html=1;verticalAlign=top;verticalLabelPosition=bottom;labelBackgroundColor=#ffffff;imageAspect=0;aspect=fixed;image=https://cdn3.iconfinder.com/data/icons/travelling-icon-set-ii-part/800/tent-128.png" vertex="1" parent="1">
          <mxGeometry x="730" y="170" width="20" height="20" as="geometry" />
        </mxCell>
        <mxCell id="DvPo4eW4fTsrVd996iuE-204" value="" style="shape=image;html=1;verticalAlign=top;verticalLabelPosition=bottom;labelBackgroundColor=#ffffff;imageAspect=0;aspect=fixed;image=https://cdn3.iconfinder.com/data/icons/travelling-icon-set-ii-part/800/tent-128.png" vertex="1" parent="1">
          <mxGeometry x="770" y="170" width="20" height="20" as="geometry" />
        </mxCell>
        <mxCell id="DvPo4eW4fTsrVd996iuE-205" value="" style="shape=image;html=1;verticalAlign=top;verticalLabelPosition=bottom;labelBackgroundColor=#ffffff;imageAspect=0;aspect=fixed;image=https://cdn3.iconfinder.com/data/icons/travelling-icon-set-ii-part/800/tent-128.png" vertex="1" parent="1">
          <mxGeometry x="690" y="490" width="20" height="20" as="geometry" />
        </mxCell>
        <mxCell id="DvPo4eW4fTsrVd996iuE-206" value="" style="shape=image;html=1;verticalAlign=top;verticalLabelPosition=bottom;labelBackgroundColor=#ffffff;imageAspect=0;aspect=fixed;image=https://cdn3.iconfinder.com/data/icons/travelling-icon-set-ii-part/800/tent-128.png" vertex="1" parent="1">
          <mxGeometry x="730" y="490" width="20" height="20" as="geometry" />
        </mxCell>
        <mxCell id="DvPo4eW4fTsrVd996iuE-207" value="" style="shape=image;html=1;verticalAlign=top;verticalLabelPosition=bottom;labelBackgroundColor=#ffffff;imageAspect=0;aspect=fixed;image=https://cdn3.iconfinder.com/data/icons/travelling-icon-set-ii-part/800/tent-128.png" vertex="1" parent="1">
          <mxGeometry x="770" y="490" width="20" height="20" as="geometry" />
        </mxCell>
        <mxCell id="DvPo4eW4fTsrVd996iuE-208" value="" style="shape=image;html=1;verticalAlign=top;verticalLabelPosition=bottom;labelBackgroundColor=#ffffff;imageAspect=0;aspect=fixed;image=https://cdn3.iconfinder.com/data/icons/travelling-icon-set-ii-part/800/tent-128.png" vertex="1" parent="1">
          <mxGeometry x="570" y="290" width="20" height="20" as="geometry" />
        </mxCell>
        <mxCell id="DvPo4eW4fTsrVd996iuE-209" value="" style="shape=image;html=1;verticalAlign=top;verticalLabelPosition=bottom;labelBackgroundColor=#ffffff;imageAspect=0;aspect=fixed;image=https://cdn3.iconfinder.com/data/icons/travelling-icon-set-ii-part/800/tent-128.png" vertex="1" parent="1">
          <mxGeometry x="570" y="330" width="20" height="20" as="geometry" />
        </mxCell>
        <mxCell id="DvPo4eW4fTsrVd996iuE-210" value="" style="shape=image;html=1;verticalAlign=top;verticalLabelPosition=bottom;labelBackgroundColor=#ffffff;imageAspect=0;aspect=fixed;image=https://cdn3.iconfinder.com/data/icons/travelling-icon-set-ii-part/800/tent-128.png" vertex="1" parent="1">
          <mxGeometry x="570" y="370" width="20" height="20" as="geometry" />
        </mxCell>
        <mxCell id="DvPo4eW4fTsrVd996iuE-211" value="" style="shape=image;html=1;verticalAlign=top;verticalLabelPosition=bottom;labelBackgroundColor=#ffffff;imageAspect=0;aspect=fixed;image=https://cdn3.iconfinder.com/data/icons/travelling-icon-set-ii-part/800/tent-128.png" vertex="1" parent="1">
          <mxGeometry x="890" y="290" width="20" height="20" as="geometry" />
        </mxCell>
        <mxCell id="DvPo4eW4fTsrVd996iuE-212" value="" style="shape=image;html=1;verticalAlign=top;verticalLabelPosition=bottom;labelBackgroundColor=#ffffff;imageAspect=0;aspect=fixed;image=https://cdn3.iconfinder.com/data/icons/travelling-icon-set-ii-part/800/tent-128.png" vertex="1" parent="1">
          <mxGeometry x="890" y="330" width="20" height="20" as="geometry" />
        </mxCell>
        <mxCell id="DvPo4eW4fTsrVd996iuE-213" value="" style="shape=image;html=1;verticalAlign=top;verticalLabelPosition=bottom;labelBackgroundColor=#ffffff;imageAspect=0;aspect=fixed;image=https://cdn3.iconfinder.com/data/icons/travelling-icon-set-ii-part/800/tent-128.png" vertex="1" parent="1">
          <mxGeometry x="890" y="370" width="20" height="20" as="geometry" />
        </mxCell>
        <mxCell id="DvPo4eW4fTsrVd996iuE-214" value="" style="whiteSpace=wrap;html=1;aspect=fixed;" vertex="1" parent="1">
          <mxGeometry x="160" y="560" width="40" height="40" as="geometry" />
        </mxCell>
        <mxCell id="DvPo4eW4fTsrVd996iuE-215" value="" style="whiteSpace=wrap;html=1;aspect=fixed;" vertex="1" parent="1">
          <mxGeometry x="200" y="560" width="40" height="40" as="geometry" />
        </mxCell>
        <mxCell id="DvPo4eW4fTsrVd996iuE-216" value="" style="whiteSpace=wrap;html=1;aspect=fixed;" vertex="1" parent="1">
          <mxGeometry x="240" y="560" width="40" height="40" as="geometry" />
        </mxCell>
        <mxCell id="DvPo4eW4fTsrVd996iuE-217" value="" style="whiteSpace=wrap;html=1;aspect=fixed;fillColor=#eeeeee;strokeColor=#36393d;" vertex="1" parent="1">
          <mxGeometry x="280" y="560" width="40" height="40" as="geometry" />
        </mxCell>
        <mxCell id="DvPo4eW4fTsrVd996iuE-218" value="" style="whiteSpace=wrap;html=1;aspect=fixed;fillColor=#eeeeee;strokeColor=#36393d;" vertex="1" parent="1">
          <mxGeometry x="320" y="560" width="40" height="40" as="geometry" />
        </mxCell>
        <mxCell id="DvPo4eW4fTsrVd996iuE-219" value="" style="whiteSpace=wrap;html=1;aspect=fixed;fillColor=#eeeeee;strokeColor=#36393d;" vertex="1" parent="1">
          <mxGeometry x="360" y="560" width="40" height="40" as="geometry" />
        </mxCell>
        <mxCell id="DvPo4eW4fTsrVd996iuE-220" value="" style="whiteSpace=wrap;html=1;aspect=fixed;" vertex="1" parent="1">
          <mxGeometry x="400" y="560" width="40" height="40" as="geometry" />
        </mxCell>
        <mxCell id="DvPo4eW4fTsrVd996iuE-221" value="" style="whiteSpace=wrap;html=1;aspect=fixed;" vertex="1" parent="1">
          <mxGeometry x="440" y="560" width="40" height="40" as="geometry" />
        </mxCell>
        <mxCell id="DvPo4eW4fTsrVd996iuE-222" value="" style="whiteSpace=wrap;html=1;aspect=fixed;" vertex="1" parent="1">
          <mxGeometry x="480" y="560" width="40" height="40" as="geometry" />
        </mxCell>
        <mxCell id="DvPo4eW4fTsrVd996iuE-223" value="" style="whiteSpace=wrap;html=1;aspect=fixed;" vertex="1" parent="1">
          <mxGeometry x="160" y="600" width="40" height="40" as="geometry" />
        </mxCell>
        <mxCell id="DvPo4eW4fTsrVd996iuE-224" value="" style="whiteSpace=wrap;html=1;aspect=fixed;" vertex="1" parent="1">
          <mxGeometry x="200" y="600" width="40" height="40" as="geometry" />
        </mxCell>
        <mxCell id="DvPo4eW4fTsrVd996iuE-225" value="" style="whiteSpace=wrap;html=1;aspect=fixed;" vertex="1" parent="1">
          <mxGeometry x="240" y="600" width="40" height="40" as="geometry" />
        </mxCell>
        <mxCell id="DvPo4eW4fTsrVd996iuE-226" value="" style="whiteSpace=wrap;html=1;aspect=fixed;" vertex="1" parent="1">
          <mxGeometry x="280" y="600" width="40" height="40" as="geometry" />
        </mxCell>
        <mxCell id="DvPo4eW4fTsrVd996iuE-227" value="" style="whiteSpace=wrap;html=1;aspect=fixed;fillColor=#eeeeee;strokeColor=#36393d;" vertex="1" parent="1">
          <mxGeometry x="320" y="600" width="40" height="40" as="geometry" />
        </mxCell>
        <mxCell id="DvPo4eW4fTsrVd996iuE-228" value="" style="whiteSpace=wrap;html=1;aspect=fixed;" vertex="1" parent="1">
          <mxGeometry x="360" y="600" width="40" height="40" as="geometry" />
        </mxCell>
        <mxCell id="DvPo4eW4fTsrVd996iuE-229" value="" style="whiteSpace=wrap;html=1;aspect=fixed;" vertex="1" parent="1">
          <mxGeometry x="400" y="600" width="40" height="40" as="geometry" />
        </mxCell>
        <mxCell id="DvPo4eW4fTsrVd996iuE-230" value="" style="whiteSpace=wrap;html=1;aspect=fixed;" vertex="1" parent="1">
          <mxGeometry x="440" y="600" width="40" height="40" as="geometry" />
        </mxCell>
        <mxCell id="DvPo4eW4fTsrVd996iuE-231" value="" style="whiteSpace=wrap;html=1;aspect=fixed;" vertex="1" parent="1">
          <mxGeometry x="480" y="600" width="40" height="40" as="geometry" />
        </mxCell>
        <mxCell id="DvPo4eW4fTsrVd996iuE-232" value="" style="whiteSpace=wrap;html=1;aspect=fixed;" vertex="1" parent="1">
          <mxGeometry x="160" y="640" width="40" height="40" as="geometry" />
        </mxCell>
        <mxCell id="DvPo4eW4fTsrVd996iuE-233" value="" style="whiteSpace=wrap;html=1;aspect=fixed;" vertex="1" parent="1">
          <mxGeometry x="200" y="640" width="40" height="40" as="geometry" />
        </mxCell>
        <mxCell id="DvPo4eW4fTsrVd996iuE-234" value="" style="whiteSpace=wrap;html=1;aspect=fixed;" vertex="1" parent="1">
          <mxGeometry x="240" y="640" width="40" height="40" as="geometry" />
        </mxCell>
        <mxCell id="DvPo4eW4fTsrVd996iuE-235" value="" style="whiteSpace=wrap;html=1;aspect=fixed;" vertex="1" parent="1">
          <mxGeometry x="280" y="640" width="40" height="40" as="geometry" />
        </mxCell>
        <mxCell id="DvPo4eW4fTsrVd996iuE-236" value="" style="whiteSpace=wrap;html=1;aspect=fixed;" vertex="1" parent="1">
          <mxGeometry x="320" y="640" width="40" height="40" as="geometry" />
        </mxCell>
        <mxCell id="DvPo4eW4fTsrVd996iuE-237" value="" style="whiteSpace=wrap;html=1;aspect=fixed;" vertex="1" parent="1">
          <mxGeometry x="360" y="640" width="40" height="40" as="geometry" />
        </mxCell>
        <mxCell id="DvPo4eW4fTsrVd996iuE-238" value="" style="whiteSpace=wrap;html=1;aspect=fixed;" vertex="1" parent="1">
          <mxGeometry x="400" y="640" width="40" height="40" as="geometry" />
        </mxCell>
        <mxCell id="DvPo4eW4fTsrVd996iuE-239" value="" style="whiteSpace=wrap;html=1;aspect=fixed;" vertex="1" parent="1">
          <mxGeometry x="440" y="640" width="40" height="40" as="geometry" />
        </mxCell>
        <mxCell id="DvPo4eW4fTsrVd996iuE-240" value="" style="whiteSpace=wrap;html=1;aspect=fixed;" vertex="1" parent="1">
          <mxGeometry x="480" y="640" width="40" height="40" as="geometry" />
        </mxCell>
        <mxCell id="DvPo4eW4fTsrVd996iuE-241" value="" style="whiteSpace=wrap;html=1;aspect=fixed;fillColor=#eeeeee;strokeColor=#36393d;" vertex="1" parent="1">
          <mxGeometry x="160" y="680" width="40" height="40" as="geometry" />
        </mxCell>
        <mxCell id="DvPo4eW4fTsrVd996iuE-242" value="" style="whiteSpace=wrap;html=1;aspect=fixed;" vertex="1" parent="1">
          <mxGeometry x="200" y="680" width="40" height="40" as="geometry" />
        </mxCell>
        <mxCell id="DvPo4eW4fTsrVd996iuE-243" value="" style="whiteSpace=wrap;html=1;aspect=fixed;" vertex="1" parent="1">
          <mxGeometry x="240" y="680" width="40" height="40" as="geometry" />
        </mxCell>
        <mxCell id="DvPo4eW4fTsrVd996iuE-244" value="" style="whiteSpace=wrap;html=1;aspect=fixed;" vertex="1" parent="1">
          <mxGeometry x="280" y="680" width="40" height="40" as="geometry" />
        </mxCell>
        <mxCell id="DvPo4eW4fTsrVd996iuE-245" value="" style="whiteSpace=wrap;html=1;aspect=fixed;" vertex="1" parent="1">
          <mxGeometry x="320" y="680" width="40" height="40" as="geometry" />
        </mxCell>
        <mxCell id="DvPo4eW4fTsrVd996iuE-246" value="" style="whiteSpace=wrap;html=1;aspect=fixed;" vertex="1" parent="1">
          <mxGeometry x="360" y="680" width="40" height="40" as="geometry" />
        </mxCell>
        <mxCell id="DvPo4eW4fTsrVd996iuE-247" value="" style="whiteSpace=wrap;html=1;aspect=fixed;" vertex="1" parent="1">
          <mxGeometry x="400" y="680" width="40" height="40" as="geometry" />
        </mxCell>
        <mxCell id="DvPo4eW4fTsrVd996iuE-248" value="" style="whiteSpace=wrap;html=1;aspect=fixed;" vertex="1" parent="1">
          <mxGeometry x="440" y="680" width="40" height="40" as="geometry" />
        </mxCell>
        <mxCell id="DvPo4eW4fTsrVd996iuE-249" value="" style="whiteSpace=wrap;html=1;aspect=fixed;fillColor=#eeeeee;strokeColor=#36393d;" vertex="1" parent="1">
          <mxGeometry x="480" y="680" width="40" height="40" as="geometry" />
        </mxCell>
        <mxCell id="DvPo4eW4fTsrVd996iuE-250" value="" style="whiteSpace=wrap;html=1;aspect=fixed;fillColor=#eeeeee;strokeColor=#36393d;" vertex="1" parent="1">
          <mxGeometry x="160" y="720" width="40" height="40" as="geometry" />
        </mxCell>
        <mxCell id="DvPo4eW4fTsrVd996iuE-251" value="" style="whiteSpace=wrap;html=1;aspect=fixed;fillColor=#eeeeee;strokeColor=#36393d;" vertex="1" parent="1">
          <mxGeometry x="200" y="720" width="40" height="40" as="geometry" />
        </mxCell>
        <mxCell id="DvPo4eW4fTsrVd996iuE-252" value="" style="whiteSpace=wrap;html=1;aspect=fixed;" vertex="1" parent="1">
          <mxGeometry x="240" y="720" width="40" height="40" as="geometry" />
        </mxCell>
        <mxCell id="DvPo4eW4fTsrVd996iuE-253" value="" style="whiteSpace=wrap;html=1;aspect=fixed;" vertex="1" parent="1">
          <mxGeometry x="280" y="720" width="40" height="40" as="geometry" />
        </mxCell>
        <mxCell id="DvPo4eW4fTsrVd996iuE-254" value="" style="whiteSpace=wrap;html=1;aspect=fixed;fillColor=#ffcc99;strokeColor=#36393d;" vertex="1" parent="1">
          <mxGeometry x="320" y="720" width="40" height="40" as="geometry" />
        </mxCell>
        <mxCell id="DvPo4eW4fTsrVd996iuE-255" value="" style="whiteSpace=wrap;html=1;aspect=fixed;" vertex="1" parent="1">
          <mxGeometry x="360" y="720" width="40" height="40" as="geometry" />
        </mxCell>
        <mxCell id="DvPo4eW4fTsrVd996iuE-256" value="" style="whiteSpace=wrap;html=1;aspect=fixed;" vertex="1" parent="1">
          <mxGeometry x="400" y="720" width="40" height="40" as="geometry" />
        </mxCell>
        <mxCell id="DvPo4eW4fTsrVd996iuE-257" value="" style="whiteSpace=wrap;html=1;aspect=fixed;fillColor=#eeeeee;strokeColor=#36393d;" vertex="1" parent="1">
          <mxGeometry x="440" y="720" width="40" height="40" as="geometry" />
        </mxCell>
        <mxCell id="DvPo4eW4fTsrVd996iuE-258" value="" style="whiteSpace=wrap;html=1;aspect=fixed;fillColor=#eeeeee;strokeColor=#36393d;" vertex="1" parent="1">
          <mxGeometry x="480" y="720" width="40" height="40" as="geometry" />
        </mxCell>
        <mxCell id="DvPo4eW4fTsrVd996iuE-259" value="" style="whiteSpace=wrap;html=1;aspect=fixed;fillColor=#eeeeee;strokeColor=#36393d;" vertex="1" parent="1">
          <mxGeometry x="160" y="760" width="40" height="40" as="geometry" />
        </mxCell>
        <mxCell id="DvPo4eW4fTsrVd996iuE-260" value="" style="whiteSpace=wrap;html=1;aspect=fixed;" vertex="1" parent="1">
          <mxGeometry x="200" y="760" width="40" height="40" as="geometry" />
        </mxCell>
        <mxCell id="DvPo4eW4fTsrVd996iuE-261" value="" style="whiteSpace=wrap;html=1;aspect=fixed;" vertex="1" parent="1">
          <mxGeometry x="240" y="760" width="40" height="40" as="geometry" />
        </mxCell>
        <mxCell id="DvPo4eW4fTsrVd996iuE-262" value="" style="whiteSpace=wrap;html=1;aspect=fixed;" vertex="1" parent="1">
          <mxGeometry x="280" y="760" width="40" height="40" as="geometry" />
        </mxCell>
        <mxCell id="DvPo4eW4fTsrVd996iuE-263" value="" style="whiteSpace=wrap;html=1;aspect=fixed;" vertex="1" parent="1">
          <mxGeometry x="320" y="760" width="40" height="40" as="geometry" />
        </mxCell>
        <mxCell id="DvPo4eW4fTsrVd996iuE-264" value="" style="whiteSpace=wrap;html=1;aspect=fixed;" vertex="1" parent="1">
          <mxGeometry x="360" y="760" width="40" height="40" as="geometry" />
        </mxCell>
        <mxCell id="DvPo4eW4fTsrVd996iuE-265" value="" style="whiteSpace=wrap;html=1;aspect=fixed;" vertex="1" parent="1">
          <mxGeometry x="400" y="760" width="40" height="40" as="geometry" />
        </mxCell>
        <mxCell id="DvPo4eW4fTsrVd996iuE-266" value="" style="whiteSpace=wrap;html=1;aspect=fixed;" vertex="1" parent="1">
          <mxGeometry x="440" y="760" width="40" height="40" as="geometry" />
        </mxCell>
        <mxCell id="DvPo4eW4fTsrVd996iuE-267" value="" style="whiteSpace=wrap;html=1;aspect=fixed;fillColor=#eeeeee;strokeColor=#36393d;" vertex="1" parent="1">
          <mxGeometry x="480" y="760" width="40" height="40" as="geometry" />
        </mxCell>
        <mxCell id="DvPo4eW4fTsrVd996iuE-268" value="" style="whiteSpace=wrap;html=1;aspect=fixed;" vertex="1" parent="1">
          <mxGeometry x="160" y="800" width="40" height="40" as="geometry" />
        </mxCell>
        <mxCell id="DvPo4eW4fTsrVd996iuE-269" value="" style="whiteSpace=wrap;html=1;aspect=fixed;" vertex="1" parent="1">
          <mxGeometry x="200" y="800" width="40" height="40" as="geometry" />
        </mxCell>
        <mxCell id="DvPo4eW4fTsrVd996iuE-270" value="" style="whiteSpace=wrap;html=1;aspect=fixed;" vertex="1" parent="1">
          <mxGeometry x="240" y="800" width="40" height="40" as="geometry" />
        </mxCell>
        <mxCell id="DvPo4eW4fTsrVd996iuE-271" value="" style="whiteSpace=wrap;html=1;aspect=fixed;" vertex="1" parent="1">
          <mxGeometry x="280" y="800" width="40" height="40" as="geometry" />
        </mxCell>
        <mxCell id="DvPo4eW4fTsrVd996iuE-272" value="" style="whiteSpace=wrap;html=1;aspect=fixed;" vertex="1" parent="1">
          <mxGeometry x="320" y="800" width="40" height="40" as="geometry" />
        </mxCell>
        <mxCell id="DvPo4eW4fTsrVd996iuE-273" value="" style="whiteSpace=wrap;html=1;aspect=fixed;" vertex="1" parent="1">
          <mxGeometry x="360" y="800" width="40" height="40" as="geometry" />
        </mxCell>
        <mxCell id="DvPo4eW4fTsrVd996iuE-274" value="" style="whiteSpace=wrap;html=1;aspect=fixed;" vertex="1" parent="1">
          <mxGeometry x="400" y="800" width="40" height="40" as="geometry" />
        </mxCell>
        <mxCell id="DvPo4eW4fTsrVd996iuE-275" value="" style="whiteSpace=wrap;html=1;aspect=fixed;" vertex="1" parent="1">
          <mxGeometry x="440" y="800" width="40" height="40" as="geometry" />
        </mxCell>
        <mxCell id="DvPo4eW4fTsrVd996iuE-276" value="" style="whiteSpace=wrap;html=1;aspect=fixed;" vertex="1" parent="1">
          <mxGeometry x="480" y="800" width="40" height="40" as="geometry" />
        </mxCell>
        <mxCell id="DvPo4eW4fTsrVd996iuE-277" value="" style="whiteSpace=wrap;html=1;aspect=fixed;" vertex="1" parent="1">
          <mxGeometry x="160" y="840" width="40" height="40" as="geometry" />
        </mxCell>
        <mxCell id="DvPo4eW4fTsrVd996iuE-278" value="" style="whiteSpace=wrap;html=1;aspect=fixed;" vertex="1" parent="1">
          <mxGeometry x="200" y="840" width="40" height="40" as="geometry" />
        </mxCell>
        <mxCell id="DvPo4eW4fTsrVd996iuE-279" value="" style="whiteSpace=wrap;html=1;aspect=fixed;" vertex="1" parent="1">
          <mxGeometry x="240" y="840" width="40" height="40" as="geometry" />
        </mxCell>
        <mxCell id="DvPo4eW4fTsrVd996iuE-280" value="" style="whiteSpace=wrap;html=1;aspect=fixed;" vertex="1" parent="1">
          <mxGeometry x="280" y="840" width="40" height="40" as="geometry" />
        </mxCell>
        <mxCell id="DvPo4eW4fTsrVd996iuE-281" value="" style="whiteSpace=wrap;html=1;aspect=fixed;fillColor=#eeeeee;strokeColor=#36393d;" vertex="1" parent="1">
          <mxGeometry x="320" y="840" width="40" height="40" as="geometry" />
        </mxCell>
        <mxCell id="DvPo4eW4fTsrVd996iuE-282" value="" style="whiteSpace=wrap;html=1;aspect=fixed;" vertex="1" parent="1">
          <mxGeometry x="360" y="840" width="40" height="40" as="geometry" />
        </mxCell>
        <mxCell id="DvPo4eW4fTsrVd996iuE-283" value="" style="whiteSpace=wrap;html=1;aspect=fixed;" vertex="1" parent="1">
          <mxGeometry x="400" y="840" width="40" height="40" as="geometry" />
        </mxCell>
        <mxCell id="DvPo4eW4fTsrVd996iuE-284" value="" style="whiteSpace=wrap;html=1;aspect=fixed;" vertex="1" parent="1">
          <mxGeometry x="440" y="840" width="40" height="40" as="geometry" />
        </mxCell>
        <mxCell id="DvPo4eW4fTsrVd996iuE-285" value="" style="whiteSpace=wrap;html=1;aspect=fixed;" vertex="1" parent="1">
          <mxGeometry x="480" y="840" width="40" height="40" as="geometry" />
        </mxCell>
        <mxCell id="DvPo4eW4fTsrVd996iuE-286" value="" style="whiteSpace=wrap;html=1;aspect=fixed;" vertex="1" parent="1">
          <mxGeometry x="160" y="880" width="40" height="40" as="geometry" />
        </mxCell>
        <mxCell id="DvPo4eW4fTsrVd996iuE-287" value="" style="whiteSpace=wrap;html=1;aspect=fixed;" vertex="1" parent="1">
          <mxGeometry x="200" y="880" width="40" height="40" as="geometry" />
        </mxCell>
        <mxCell id="DvPo4eW4fTsrVd996iuE-288" value="" style="whiteSpace=wrap;html=1;aspect=fixed;" vertex="1" parent="1">
          <mxGeometry x="240" y="880" width="40" height="40" as="geometry" />
        </mxCell>
        <mxCell id="DvPo4eW4fTsrVd996iuE-289" value="" style="whiteSpace=wrap;html=1;aspect=fixed;fillColor=#eeeeee;strokeColor=#36393d;" vertex="1" parent="1">
          <mxGeometry x="280" y="880" width="40" height="40" as="geometry" />
        </mxCell>
        <mxCell id="DvPo4eW4fTsrVd996iuE-290" value="" style="whiteSpace=wrap;html=1;aspect=fixed;fillColor=#eeeeee;strokeColor=#36393d;" vertex="1" parent="1">
          <mxGeometry x="320" y="880" width="40" height="40" as="geometry" />
        </mxCell>
        <mxCell id="DvPo4eW4fTsrVd996iuE-291" value="" style="whiteSpace=wrap;html=1;aspect=fixed;fillColor=#eeeeee;strokeColor=#36393d;" vertex="1" parent="1">
          <mxGeometry x="360" y="880" width="40" height="40" as="geometry" />
        </mxCell>
        <mxCell id="DvPo4eW4fTsrVd996iuE-292" value="" style="whiteSpace=wrap;html=1;aspect=fixed;" vertex="1" parent="1">
          <mxGeometry x="400" y="880" width="40" height="40" as="geometry" />
        </mxCell>
        <mxCell id="DvPo4eW4fTsrVd996iuE-293" value="" style="whiteSpace=wrap;html=1;aspect=fixed;" vertex="1" parent="1">
          <mxGeometry x="440" y="880" width="40" height="40" as="geometry" />
        </mxCell>
        <mxCell id="DvPo4eW4fTsrVd996iuE-294" value="" style="whiteSpace=wrap;html=1;aspect=fixed;" vertex="1" parent="1">
          <mxGeometry x="480" y="880" width="40" height="40" as="geometry" />
        </mxCell>
        <mxCell id="DvPo4eW4fTsrVd996iuE-295" value="" style="shape=image;html=1;verticalAlign=top;verticalLabelPosition=bottom;labelBackgroundColor=#ffffff;imageAspect=0;aspect=fixed;image=https://cdn3.iconfinder.com/data/icons/travelling-icon-set-ii-part/800/tent-128.png" vertex="1" parent="1">
          <mxGeometry x="450" y="730" width="20" height="20" as="geometry" />
        </mxCell>
        <mxCell id="DvPo4eW4fTsrVd996iuE-296" value="" style="shape=image;html=1;verticalAlign=top;verticalLabelPosition=bottom;labelBackgroundColor=#ffffff;imageAspect=0;aspect=fixed;image=https://cdn3.iconfinder.com/data/icons/halloween-36/64/_Castle-128.png" vertex="1" parent="1">
          <mxGeometry x="330" y="730" width="20" height="20" as="geometry" />
        </mxCell>
        <mxCell id="DvPo4eW4fTsrVd996iuE-297" value="" style="shape=image;html=1;verticalAlign=top;verticalLabelPosition=bottom;labelBackgroundColor=#ffffff;imageAspect=0;aspect=fixed;image=https://cdn3.iconfinder.com/data/icons/travelling-icon-set-ii-part/800/tent-128.png" vertex="1" parent="1">
          <mxGeometry x="330" y="850" width="20" height="20" as="geometry" />
        </mxCell>
        <mxCell id="DvPo4eW4fTsrVd996iuE-298" value="" style="shape=image;html=1;verticalAlign=top;verticalLabelPosition=bottom;labelBackgroundColor=#ffffff;imageAspect=0;aspect=fixed;image=https://cdn3.iconfinder.com/data/icons/travelling-icon-set-ii-part/800/tent-128.png" vertex="1" parent="1">
          <mxGeometry x="210" y="730" width="20" height="20" as="geometry" />
        </mxCell>
        <mxCell id="DvPo4eW4fTsrVd996iuE-299" value="" style="shape=image;html=1;verticalAlign=top;verticalLabelPosition=bottom;labelBackgroundColor=#ffffff;imageAspect=0;aspect=fixed;image=https://cdn3.iconfinder.com/data/icons/travelling-icon-set-ii-part/800/tent-128.png" vertex="1" parent="1">
          <mxGeometry x="330" y="610" width="20" height="20" as="geometry" />
        </mxCell>
        <mxCell id="DvPo4eW4fTsrVd996iuE-300" value="" style="shape=image;html=1;verticalAlign=top;verticalLabelPosition=bottom;labelBackgroundColor=#ffffff;imageAspect=0;aspect=fixed;image=https://cdn3.iconfinder.com/data/icons/travelling-icon-set-ii-part/800/tent-128.png" vertex="1" parent="1">
          <mxGeometry x="290" y="570" width="20" height="20" as="geometry" />
        </mxCell>
        <mxCell id="DvPo4eW4fTsrVd996iuE-301" value="" style="shape=image;html=1;verticalAlign=top;verticalLabelPosition=bottom;labelBackgroundColor=#ffffff;imageAspect=0;aspect=fixed;image=https://cdn3.iconfinder.com/data/icons/travelling-icon-set-ii-part/800/tent-128.png" vertex="1" parent="1">
          <mxGeometry x="330" y="570" width="20" height="20" as="geometry" />
        </mxCell>
        <mxCell id="DvPo4eW4fTsrVd996iuE-302" value="" style="shape=image;html=1;verticalAlign=top;verticalLabelPosition=bottom;labelBackgroundColor=#ffffff;imageAspect=0;aspect=fixed;image=https://cdn3.iconfinder.com/data/icons/travelling-icon-set-ii-part/800/tent-128.png" vertex="1" parent="1">
          <mxGeometry x="370" y="570" width="20" height="20" as="geometry" />
        </mxCell>
        <mxCell id="DvPo4eW4fTsrVd996iuE-303" value="" style="shape=image;html=1;verticalAlign=top;verticalLabelPosition=bottom;labelBackgroundColor=#ffffff;imageAspect=0;aspect=fixed;image=https://cdn3.iconfinder.com/data/icons/travelling-icon-set-ii-part/800/tent-128.png" vertex="1" parent="1">
          <mxGeometry x="290" y="890" width="20" height="20" as="geometry" />
        </mxCell>
        <mxCell id="DvPo4eW4fTsrVd996iuE-304" value="" style="shape=image;html=1;verticalAlign=top;verticalLabelPosition=bottom;labelBackgroundColor=#ffffff;imageAspect=0;aspect=fixed;image=https://cdn3.iconfinder.com/data/icons/travelling-icon-set-ii-part/800/tent-128.png" vertex="1" parent="1">
          <mxGeometry x="330" y="890" width="20" height="20" as="geometry" />
        </mxCell>
        <mxCell id="DvPo4eW4fTsrVd996iuE-305" value="" style="shape=image;html=1;verticalAlign=top;verticalLabelPosition=bottom;labelBackgroundColor=#ffffff;imageAspect=0;aspect=fixed;image=https://cdn3.iconfinder.com/data/icons/travelling-icon-set-ii-part/800/tent-128.png" vertex="1" parent="1">
          <mxGeometry x="370" y="890" width="20" height="20" as="geometry" />
        </mxCell>
        <mxCell id="DvPo4eW4fTsrVd996iuE-306" value="" style="shape=image;html=1;verticalAlign=top;verticalLabelPosition=bottom;labelBackgroundColor=#ffffff;imageAspect=0;aspect=fixed;image=https://cdn3.iconfinder.com/data/icons/travelling-icon-set-ii-part/800/tent-128.png" vertex="1" parent="1">
          <mxGeometry x="170" y="690" width="20" height="20" as="geometry" />
        </mxCell>
        <mxCell id="DvPo4eW4fTsrVd996iuE-307" value="" style="shape=image;html=1;verticalAlign=top;verticalLabelPosition=bottom;labelBackgroundColor=#ffffff;imageAspect=0;aspect=fixed;image=https://cdn3.iconfinder.com/data/icons/travelling-icon-set-ii-part/800/tent-128.png" vertex="1" parent="1">
          <mxGeometry x="170" y="730" width="20" height="20" as="geometry" />
        </mxCell>
        <mxCell id="DvPo4eW4fTsrVd996iuE-308" value="" style="shape=image;html=1;verticalAlign=top;verticalLabelPosition=bottom;labelBackgroundColor=#ffffff;imageAspect=0;aspect=fixed;image=https://cdn3.iconfinder.com/data/icons/travelling-icon-set-ii-part/800/tent-128.png" vertex="1" parent="1">
          <mxGeometry x="170" y="770" width="20" height="20" as="geometry" />
        </mxCell>
        <mxCell id="DvPo4eW4fTsrVd996iuE-309" value="" style="shape=image;html=1;verticalAlign=top;verticalLabelPosition=bottom;labelBackgroundColor=#ffffff;imageAspect=0;aspect=fixed;image=https://cdn3.iconfinder.com/data/icons/travelling-icon-set-ii-part/800/tent-128.png" vertex="1" parent="1">
          <mxGeometry x="490" y="690" width="20" height="20" as="geometry" />
        </mxCell>
        <mxCell id="DvPo4eW4fTsrVd996iuE-310" value="" style="shape=image;html=1;verticalAlign=top;verticalLabelPosition=bottom;labelBackgroundColor=#ffffff;imageAspect=0;aspect=fixed;image=https://cdn3.iconfinder.com/data/icons/travelling-icon-set-ii-part/800/tent-128.png" vertex="1" parent="1">
          <mxGeometry x="490" y="730" width="20" height="20" as="geometry" />
        </mxCell>
        <mxCell id="DvPo4eW4fTsrVd996iuE-311" value="" style="shape=image;html=1;verticalAlign=top;verticalLabelPosition=bottom;labelBackgroundColor=#ffffff;imageAspect=0;aspect=fixed;image=https://cdn3.iconfinder.com/data/icons/travelling-icon-set-ii-part/800/tent-128.png" vertex="1" parent="1">
          <mxGeometry x="490" y="770" width="20" height="20" as="geometry" />
        </mxCell>
        <mxCell id="DvPo4eW4fTsrVd996iuE-312" value="" style="whiteSpace=wrap;html=1;aspect=fixed;" vertex="1" parent="1">
          <mxGeometry x="560" y="560" width="40" height="40" as="geometry" />
        </mxCell>
        <mxCell id="DvPo4eW4fTsrVd996iuE-313" value="" style="whiteSpace=wrap;html=1;aspect=fixed;" vertex="1" parent="1">
          <mxGeometry x="600" y="560" width="40" height="40" as="geometry" />
        </mxCell>
        <mxCell id="DvPo4eW4fTsrVd996iuE-314" value="" style="whiteSpace=wrap;html=1;aspect=fixed;" vertex="1" parent="1">
          <mxGeometry x="640" y="560" width="40" height="40" as="geometry" />
        </mxCell>
        <mxCell id="DvPo4eW4fTsrVd996iuE-315" value="" style="whiteSpace=wrap;html=1;aspect=fixed;fillColor=#eeeeee;strokeColor=#36393d;" vertex="1" parent="1">
          <mxGeometry x="680" y="560" width="40" height="40" as="geometry" />
        </mxCell>
        <mxCell id="DvPo4eW4fTsrVd996iuE-316" value="" style="whiteSpace=wrap;html=1;aspect=fixed;fillColor=#eeeeee;strokeColor=#36393d;" vertex="1" parent="1">
          <mxGeometry x="720" y="560" width="40" height="40" as="geometry" />
        </mxCell>
        <mxCell id="DvPo4eW4fTsrVd996iuE-317" value="" style="whiteSpace=wrap;html=1;aspect=fixed;fillColor=#eeeeee;strokeColor=#36393d;" vertex="1" parent="1">
          <mxGeometry x="760" y="560" width="40" height="40" as="geometry" />
        </mxCell>
        <mxCell id="DvPo4eW4fTsrVd996iuE-318" value="" style="whiteSpace=wrap;html=1;aspect=fixed;" vertex="1" parent="1">
          <mxGeometry x="800" y="560" width="40" height="40" as="geometry" />
        </mxCell>
        <mxCell id="DvPo4eW4fTsrVd996iuE-319" value="" style="whiteSpace=wrap;html=1;aspect=fixed;" vertex="1" parent="1">
          <mxGeometry x="840" y="560" width="40" height="40" as="geometry" />
        </mxCell>
        <mxCell id="DvPo4eW4fTsrVd996iuE-320" value="" style="whiteSpace=wrap;html=1;aspect=fixed;" vertex="1" parent="1">
          <mxGeometry x="880" y="560" width="40" height="40" as="geometry" />
        </mxCell>
        <mxCell id="DvPo4eW4fTsrVd996iuE-321" value="" style="whiteSpace=wrap;html=1;aspect=fixed;" vertex="1" parent="1">
          <mxGeometry x="560" y="600" width="40" height="40" as="geometry" />
        </mxCell>
        <mxCell id="DvPo4eW4fTsrVd996iuE-322" value="" style="whiteSpace=wrap;html=1;aspect=fixed;" vertex="1" parent="1">
          <mxGeometry x="600" y="600" width="40" height="40" as="geometry" />
        </mxCell>
        <mxCell id="DvPo4eW4fTsrVd996iuE-323" value="" style="whiteSpace=wrap;html=1;aspect=fixed;" vertex="1" parent="1">
          <mxGeometry x="640" y="600" width="40" height="40" as="geometry" />
        </mxCell>
        <mxCell id="DvPo4eW4fTsrVd996iuE-324" value="" style="whiteSpace=wrap;html=1;aspect=fixed;" vertex="1" parent="1">
          <mxGeometry x="680" y="600" width="40" height="40" as="geometry" />
        </mxCell>
        <mxCell id="DvPo4eW4fTsrVd996iuE-325" value="" style="whiteSpace=wrap;html=1;aspect=fixed;fillColor=#eeeeee;strokeColor=#36393d;" vertex="1" parent="1">
          <mxGeometry x="720" y="600" width="40" height="40" as="geometry" />
        </mxCell>
        <mxCell id="DvPo4eW4fTsrVd996iuE-326" value="" style="whiteSpace=wrap;html=1;aspect=fixed;" vertex="1" parent="1">
          <mxGeometry x="760" y="600" width="40" height="40" as="geometry" />
        </mxCell>
        <mxCell id="DvPo4eW4fTsrVd996iuE-327" value="" style="whiteSpace=wrap;html=1;aspect=fixed;" vertex="1" parent="1">
          <mxGeometry x="800" y="600" width="40" height="40" as="geometry" />
        </mxCell>
        <mxCell id="DvPo4eW4fTsrVd996iuE-328" value="" style="whiteSpace=wrap;html=1;aspect=fixed;" vertex="1" parent="1">
          <mxGeometry x="840" y="600" width="40" height="40" as="geometry" />
        </mxCell>
        <mxCell id="DvPo4eW4fTsrVd996iuE-329" value="" style="whiteSpace=wrap;html=1;aspect=fixed;" vertex="1" parent="1">
          <mxGeometry x="880" y="600" width="40" height="40" as="geometry" />
        </mxCell>
        <mxCell id="DvPo4eW4fTsrVd996iuE-330" value="" style="whiteSpace=wrap;html=1;aspect=fixed;" vertex="1" parent="1">
          <mxGeometry x="560" y="640" width="40" height="40" as="geometry" />
        </mxCell>
        <mxCell id="DvPo4eW4fTsrVd996iuE-331" value="" style="whiteSpace=wrap;html=1;aspect=fixed;" vertex="1" parent="1">
          <mxGeometry x="600" y="640" width="40" height="40" as="geometry" />
        </mxCell>
        <mxCell id="DvPo4eW4fTsrVd996iuE-332" value="" style="whiteSpace=wrap;html=1;aspect=fixed;" vertex="1" parent="1">
          <mxGeometry x="640" y="640" width="40" height="40" as="geometry" />
        </mxCell>
        <mxCell id="DvPo4eW4fTsrVd996iuE-333" value="" style="whiteSpace=wrap;html=1;aspect=fixed;" vertex="1" parent="1">
          <mxGeometry x="680" y="640" width="40" height="40" as="geometry" />
        </mxCell>
        <mxCell id="DvPo4eW4fTsrVd996iuE-334" value="" style="whiteSpace=wrap;html=1;aspect=fixed;" vertex="1" parent="1">
          <mxGeometry x="720" y="640" width="40" height="40" as="geometry" />
        </mxCell>
        <mxCell id="DvPo4eW4fTsrVd996iuE-335" value="" style="whiteSpace=wrap;html=1;aspect=fixed;" vertex="1" parent="1">
          <mxGeometry x="760" y="640" width="40" height="40" as="geometry" />
        </mxCell>
        <mxCell id="DvPo4eW4fTsrVd996iuE-336" value="" style="whiteSpace=wrap;html=1;aspect=fixed;" vertex="1" parent="1">
          <mxGeometry x="800" y="640" width="40" height="40" as="geometry" />
        </mxCell>
        <mxCell id="DvPo4eW4fTsrVd996iuE-337" value="" style="whiteSpace=wrap;html=1;aspect=fixed;" vertex="1" parent="1">
          <mxGeometry x="840" y="640" width="40" height="40" as="geometry" />
        </mxCell>
        <mxCell id="DvPo4eW4fTsrVd996iuE-338" value="" style="whiteSpace=wrap;html=1;aspect=fixed;" vertex="1" parent="1">
          <mxGeometry x="880" y="640" width="40" height="40" as="geometry" />
        </mxCell>
        <mxCell id="DvPo4eW4fTsrVd996iuE-339" value="" style="whiteSpace=wrap;html=1;aspect=fixed;fillColor=#eeeeee;strokeColor=#36393d;" vertex="1" parent="1">
          <mxGeometry x="560" y="680" width="40" height="40" as="geometry" />
        </mxCell>
        <mxCell id="DvPo4eW4fTsrVd996iuE-340" value="" style="whiteSpace=wrap;html=1;aspect=fixed;" vertex="1" parent="1">
          <mxGeometry x="600" y="680" width="40" height="40" as="geometry" />
        </mxCell>
        <mxCell id="DvPo4eW4fTsrVd996iuE-341" value="" style="whiteSpace=wrap;html=1;aspect=fixed;" vertex="1" parent="1">
          <mxGeometry x="640" y="680" width="40" height="40" as="geometry" />
        </mxCell>
        <mxCell id="DvPo4eW4fTsrVd996iuE-342" value="" style="whiteSpace=wrap;html=1;aspect=fixed;" vertex="1" parent="1">
          <mxGeometry x="680" y="680" width="40" height="40" as="geometry" />
        </mxCell>
        <mxCell id="DvPo4eW4fTsrVd996iuE-343" value="" style="whiteSpace=wrap;html=1;aspect=fixed;" vertex="1" parent="1">
          <mxGeometry x="720" y="680" width="40" height="40" as="geometry" />
        </mxCell>
        <mxCell id="DvPo4eW4fTsrVd996iuE-344" value="" style="whiteSpace=wrap;html=1;aspect=fixed;" vertex="1" parent="1">
          <mxGeometry x="760" y="680" width="40" height="40" as="geometry" />
        </mxCell>
        <mxCell id="DvPo4eW4fTsrVd996iuE-345" value="" style="whiteSpace=wrap;html=1;aspect=fixed;" vertex="1" parent="1">
          <mxGeometry x="800" y="680" width="40" height="40" as="geometry" />
        </mxCell>
        <mxCell id="DvPo4eW4fTsrVd996iuE-346" value="" style="whiteSpace=wrap;html=1;aspect=fixed;" vertex="1" parent="1">
          <mxGeometry x="840" y="680" width="40" height="40" as="geometry" />
        </mxCell>
        <mxCell id="DvPo4eW4fTsrVd996iuE-347" value="" style="whiteSpace=wrap;html=1;aspect=fixed;fillColor=#eeeeee;strokeColor=#36393d;" vertex="1" parent="1">
          <mxGeometry x="880" y="680" width="40" height="40" as="geometry" />
        </mxCell>
        <mxCell id="DvPo4eW4fTsrVd996iuE-348" value="" style="whiteSpace=wrap;html=1;aspect=fixed;fillColor=#eeeeee;strokeColor=#36393d;" vertex="1" parent="1">
          <mxGeometry x="560" y="720" width="40" height="40" as="geometry" />
        </mxCell>
        <mxCell id="DvPo4eW4fTsrVd996iuE-349" value="" style="whiteSpace=wrap;html=1;aspect=fixed;fillColor=#eeeeee;strokeColor=#36393d;" vertex="1" parent="1">
          <mxGeometry x="600" y="720" width="40" height="40" as="geometry" />
        </mxCell>
        <mxCell id="DvPo4eW4fTsrVd996iuE-350" value="" style="whiteSpace=wrap;html=1;aspect=fixed;" vertex="1" parent="1">
          <mxGeometry x="640" y="720" width="40" height="40" as="geometry" />
        </mxCell>
        <mxCell id="DvPo4eW4fTsrVd996iuE-351" value="" style="whiteSpace=wrap;html=1;aspect=fixed;" vertex="1" parent="1">
          <mxGeometry x="680" y="720" width="40" height="40" as="geometry" />
        </mxCell>
        <mxCell id="DvPo4eW4fTsrVd996iuE-352" value="" style="whiteSpace=wrap;html=1;aspect=fixed;fillColor=#ffcc99;strokeColor=#36393d;" vertex="1" parent="1">
          <mxGeometry x="720" y="720" width="40" height="40" as="geometry" />
        </mxCell>
        <mxCell id="DvPo4eW4fTsrVd996iuE-353" value="" style="whiteSpace=wrap;html=1;aspect=fixed;" vertex="1" parent="1">
          <mxGeometry x="760" y="720" width="40" height="40" as="geometry" />
        </mxCell>
        <mxCell id="DvPo4eW4fTsrVd996iuE-354" value="" style="whiteSpace=wrap;html=1;aspect=fixed;" vertex="1" parent="1">
          <mxGeometry x="800" y="720" width="40" height="40" as="geometry" />
        </mxCell>
        <mxCell id="DvPo4eW4fTsrVd996iuE-355" value="" style="whiteSpace=wrap;html=1;aspect=fixed;fillColor=#eeeeee;strokeColor=#36393d;" vertex="1" parent="1">
          <mxGeometry x="840" y="720" width="40" height="40" as="geometry" />
        </mxCell>
        <mxCell id="DvPo4eW4fTsrVd996iuE-356" value="" style="whiteSpace=wrap;html=1;aspect=fixed;fillColor=#eeeeee;strokeColor=#36393d;" vertex="1" parent="1">
          <mxGeometry x="880" y="720" width="40" height="40" as="geometry" />
        </mxCell>
        <mxCell id="DvPo4eW4fTsrVd996iuE-357" value="" style="whiteSpace=wrap;html=1;aspect=fixed;fillColor=#eeeeee;strokeColor=#36393d;" vertex="1" parent="1">
          <mxGeometry x="560" y="760" width="40" height="40" as="geometry" />
        </mxCell>
        <mxCell id="DvPo4eW4fTsrVd996iuE-358" value="" style="whiteSpace=wrap;html=1;aspect=fixed;" vertex="1" parent="1">
          <mxGeometry x="600" y="760" width="40" height="40" as="geometry" />
        </mxCell>
        <mxCell id="DvPo4eW4fTsrVd996iuE-359" value="" style="whiteSpace=wrap;html=1;aspect=fixed;" vertex="1" parent="1">
          <mxGeometry x="640" y="760" width="40" height="40" as="geometry" />
        </mxCell>
        <mxCell id="DvPo4eW4fTsrVd996iuE-360" value="" style="whiteSpace=wrap;html=1;aspect=fixed;" vertex="1" parent="1">
          <mxGeometry x="680" y="760" width="40" height="40" as="geometry" />
        </mxCell>
        <mxCell id="DvPo4eW4fTsrVd996iuE-361" value="" style="whiteSpace=wrap;html=1;aspect=fixed;" vertex="1" parent="1">
          <mxGeometry x="720" y="760" width="40" height="40" as="geometry" />
        </mxCell>
        <mxCell id="DvPo4eW4fTsrVd996iuE-362" value="" style="whiteSpace=wrap;html=1;aspect=fixed;" vertex="1" parent="1">
          <mxGeometry x="760" y="760" width="40" height="40" as="geometry" />
        </mxCell>
        <mxCell id="DvPo4eW4fTsrVd996iuE-363" value="" style="whiteSpace=wrap;html=1;aspect=fixed;" vertex="1" parent="1">
          <mxGeometry x="800" y="760" width="40" height="40" as="geometry" />
        </mxCell>
        <mxCell id="DvPo4eW4fTsrVd996iuE-364" value="" style="whiteSpace=wrap;html=1;aspect=fixed;" vertex="1" parent="1">
          <mxGeometry x="840" y="760" width="40" height="40" as="geometry" />
        </mxCell>
        <mxCell id="DvPo4eW4fTsrVd996iuE-365" value="" style="whiteSpace=wrap;html=1;aspect=fixed;fillColor=#eeeeee;strokeColor=#36393d;" vertex="1" parent="1">
          <mxGeometry x="880" y="760" width="40" height="40" as="geometry" />
        </mxCell>
        <mxCell id="DvPo4eW4fTsrVd996iuE-366" value="" style="whiteSpace=wrap;html=1;aspect=fixed;" vertex="1" parent="1">
          <mxGeometry x="560" y="800" width="40" height="40" as="geometry" />
        </mxCell>
        <mxCell id="DvPo4eW4fTsrVd996iuE-367" value="" style="whiteSpace=wrap;html=1;aspect=fixed;" vertex="1" parent="1">
          <mxGeometry x="600" y="800" width="40" height="40" as="geometry" />
        </mxCell>
        <mxCell id="DvPo4eW4fTsrVd996iuE-368" value="" style="whiteSpace=wrap;html=1;aspect=fixed;" vertex="1" parent="1">
          <mxGeometry x="640" y="800" width="40" height="40" as="geometry" />
        </mxCell>
        <mxCell id="DvPo4eW4fTsrVd996iuE-369" value="" style="whiteSpace=wrap;html=1;aspect=fixed;" vertex="1" parent="1">
          <mxGeometry x="680" y="800" width="40" height="40" as="geometry" />
        </mxCell>
        <mxCell id="DvPo4eW4fTsrVd996iuE-370" value="" style="whiteSpace=wrap;html=1;aspect=fixed;" vertex="1" parent="1">
          <mxGeometry x="720" y="800" width="40" height="40" as="geometry" />
        </mxCell>
        <mxCell id="DvPo4eW4fTsrVd996iuE-371" value="" style="whiteSpace=wrap;html=1;aspect=fixed;" vertex="1" parent="1">
          <mxGeometry x="760" y="800" width="40" height="40" as="geometry" />
        </mxCell>
        <mxCell id="DvPo4eW4fTsrVd996iuE-372" value="" style="whiteSpace=wrap;html=1;aspect=fixed;" vertex="1" parent="1">
          <mxGeometry x="800" y="800" width="40" height="40" as="geometry" />
        </mxCell>
        <mxCell id="DvPo4eW4fTsrVd996iuE-373" value="" style="whiteSpace=wrap;html=1;aspect=fixed;" vertex="1" parent="1">
          <mxGeometry x="840" y="800" width="40" height="40" as="geometry" />
        </mxCell>
        <mxCell id="DvPo4eW4fTsrVd996iuE-374" value="" style="whiteSpace=wrap;html=1;aspect=fixed;" vertex="1" parent="1">
          <mxGeometry x="880" y="800" width="40" height="40" as="geometry" />
        </mxCell>
        <mxCell id="DvPo4eW4fTsrVd996iuE-375" value="" style="whiteSpace=wrap;html=1;aspect=fixed;" vertex="1" parent="1">
          <mxGeometry x="560" y="840" width="40" height="40" as="geometry" />
        </mxCell>
        <mxCell id="DvPo4eW4fTsrVd996iuE-376" value="" style="whiteSpace=wrap;html=1;aspect=fixed;" vertex="1" parent="1">
          <mxGeometry x="600" y="840" width="40" height="40" as="geometry" />
        </mxCell>
        <mxCell id="DvPo4eW4fTsrVd996iuE-377" value="" style="whiteSpace=wrap;html=1;aspect=fixed;" vertex="1" parent="1">
          <mxGeometry x="640" y="840" width="40" height="40" as="geometry" />
        </mxCell>
        <mxCell id="DvPo4eW4fTsrVd996iuE-378" value="" style="whiteSpace=wrap;html=1;aspect=fixed;" vertex="1" parent="1">
          <mxGeometry x="680" y="840" width="40" height="40" as="geometry" />
        </mxCell>
        <mxCell id="DvPo4eW4fTsrVd996iuE-379" value="" style="whiteSpace=wrap;html=1;aspect=fixed;fillColor=#eeeeee;strokeColor=#36393d;" vertex="1" parent="1">
          <mxGeometry x="720" y="840" width="40" height="40" as="geometry" />
        </mxCell>
        <mxCell id="DvPo4eW4fTsrVd996iuE-380" value="" style="whiteSpace=wrap;html=1;aspect=fixed;" vertex="1" parent="1">
          <mxGeometry x="760" y="840" width="40" height="40" as="geometry" />
        </mxCell>
        <mxCell id="DvPo4eW4fTsrVd996iuE-381" value="" style="whiteSpace=wrap;html=1;aspect=fixed;" vertex="1" parent="1">
          <mxGeometry x="800" y="840" width="40" height="40" as="geometry" />
        </mxCell>
        <mxCell id="DvPo4eW4fTsrVd996iuE-382" value="" style="whiteSpace=wrap;html=1;aspect=fixed;" vertex="1" parent="1">
          <mxGeometry x="840" y="840" width="40" height="40" as="geometry" />
        </mxCell>
        <mxCell id="DvPo4eW4fTsrVd996iuE-383" value="" style="whiteSpace=wrap;html=1;aspect=fixed;" vertex="1" parent="1">
          <mxGeometry x="880" y="840" width="40" height="40" as="geometry" />
        </mxCell>
        <mxCell id="DvPo4eW4fTsrVd996iuE-384" value="" style="whiteSpace=wrap;html=1;aspect=fixed;" vertex="1" parent="1">
          <mxGeometry x="560" y="880" width="40" height="40" as="geometry" />
        </mxCell>
        <mxCell id="DvPo4eW4fTsrVd996iuE-385" value="" style="whiteSpace=wrap;html=1;aspect=fixed;" vertex="1" parent="1">
          <mxGeometry x="600" y="880" width="40" height="40" as="geometry" />
        </mxCell>
        <mxCell id="DvPo4eW4fTsrVd996iuE-386" value="" style="whiteSpace=wrap;html=1;aspect=fixed;" vertex="1" parent="1">
          <mxGeometry x="640" y="880" width="40" height="40" as="geometry" />
        </mxCell>
        <mxCell id="DvPo4eW4fTsrVd996iuE-387" value="" style="whiteSpace=wrap;html=1;aspect=fixed;fillColor=#eeeeee;strokeColor=#36393d;" vertex="1" parent="1">
          <mxGeometry x="680" y="880" width="40" height="40" as="geometry" />
        </mxCell>
        <mxCell id="DvPo4eW4fTsrVd996iuE-388" value="" style="whiteSpace=wrap;html=1;aspect=fixed;fillColor=#eeeeee;strokeColor=#36393d;" vertex="1" parent="1">
          <mxGeometry x="720" y="880" width="40" height="40" as="geometry" />
        </mxCell>
        <mxCell id="DvPo4eW4fTsrVd996iuE-389" value="" style="whiteSpace=wrap;html=1;aspect=fixed;fillColor=#eeeeee;strokeColor=#36393d;" vertex="1" parent="1">
          <mxGeometry x="760" y="880" width="40" height="40" as="geometry" />
        </mxCell>
        <mxCell id="DvPo4eW4fTsrVd996iuE-390" value="" style="whiteSpace=wrap;html=1;aspect=fixed;" vertex="1" parent="1">
          <mxGeometry x="800" y="880" width="40" height="40" as="geometry" />
        </mxCell>
        <mxCell id="DvPo4eW4fTsrVd996iuE-391" value="" style="whiteSpace=wrap;html=1;aspect=fixed;" vertex="1" parent="1">
          <mxGeometry x="840" y="880" width="40" height="40" as="geometry" />
        </mxCell>
        <mxCell id="DvPo4eW4fTsrVd996iuE-392" value="" style="whiteSpace=wrap;html=1;aspect=fixed;" vertex="1" parent="1">
          <mxGeometry x="880" y="880" width="40" height="40" as="geometry" />
        </mxCell>
        <mxCell id="DvPo4eW4fTsrVd996iuE-393" value="" style="shape=image;html=1;verticalAlign=top;verticalLabelPosition=bottom;labelBackgroundColor=#ffffff;imageAspect=0;aspect=fixed;image=https://cdn3.iconfinder.com/data/icons/travelling-icon-set-ii-part/800/tent-128.png" vertex="1" parent="1">
          <mxGeometry x="850" y="730" width="20" height="20" as="geometry" />
        </mxCell>
        <mxCell id="DvPo4eW4fTsrVd996iuE-394" value="" style="shape=image;html=1;verticalAlign=top;verticalLabelPosition=bottom;labelBackgroundColor=#ffffff;imageAspect=0;aspect=fixed;image=https://cdn3.iconfinder.com/data/icons/halloween-36/64/_Castle-128.png" vertex="1" parent="1">
          <mxGeometry x="730" y="730" width="20" height="20" as="geometry" />
        </mxCell>
        <mxCell id="DvPo4eW4fTsrVd996iuE-395" value="" style="shape=image;html=1;verticalAlign=top;verticalLabelPosition=bottom;labelBackgroundColor=#ffffff;imageAspect=0;aspect=fixed;image=https://cdn3.iconfinder.com/data/icons/travelling-icon-set-ii-part/800/tent-128.png" vertex="1" parent="1">
          <mxGeometry x="730" y="850" width="20" height="20" as="geometry" />
        </mxCell>
        <mxCell id="DvPo4eW4fTsrVd996iuE-396" value="" style="shape=image;html=1;verticalAlign=top;verticalLabelPosition=bottom;labelBackgroundColor=#ffffff;imageAspect=0;aspect=fixed;image=https://cdn3.iconfinder.com/data/icons/travelling-icon-set-ii-part/800/tent-128.png" vertex="1" parent="1">
          <mxGeometry x="610" y="730" width="20" height="20" as="geometry" />
        </mxCell>
        <mxCell id="DvPo4eW4fTsrVd996iuE-397" value="" style="shape=image;html=1;verticalAlign=top;verticalLabelPosition=bottom;labelBackgroundColor=#ffffff;imageAspect=0;aspect=fixed;image=https://cdn3.iconfinder.com/data/icons/travelling-icon-set-ii-part/800/tent-128.png" vertex="1" parent="1">
          <mxGeometry x="730" y="610" width="20" height="20" as="geometry" />
        </mxCell>
        <mxCell id="DvPo4eW4fTsrVd996iuE-398" value="" style="shape=image;html=1;verticalAlign=top;verticalLabelPosition=bottom;labelBackgroundColor=#ffffff;imageAspect=0;aspect=fixed;image=https://cdn3.iconfinder.com/data/icons/travelling-icon-set-ii-part/800/tent-128.png" vertex="1" parent="1">
          <mxGeometry x="690" y="570" width="20" height="20" as="geometry" />
        </mxCell>
        <mxCell id="DvPo4eW4fTsrVd996iuE-399" value="" style="shape=image;html=1;verticalAlign=top;verticalLabelPosition=bottom;labelBackgroundColor=#ffffff;imageAspect=0;aspect=fixed;image=https://cdn3.iconfinder.com/data/icons/travelling-icon-set-ii-part/800/tent-128.png" vertex="1" parent="1">
          <mxGeometry x="730" y="570" width="20" height="20" as="geometry" />
        </mxCell>
        <mxCell id="DvPo4eW4fTsrVd996iuE-400" value="" style="shape=image;html=1;verticalAlign=top;verticalLabelPosition=bottom;labelBackgroundColor=#ffffff;imageAspect=0;aspect=fixed;image=https://cdn3.iconfinder.com/data/icons/travelling-icon-set-ii-part/800/tent-128.png" vertex="1" parent="1">
          <mxGeometry x="770" y="570" width="20" height="20" as="geometry" />
        </mxCell>
        <mxCell id="DvPo4eW4fTsrVd996iuE-401" value="" style="shape=image;html=1;verticalAlign=top;verticalLabelPosition=bottom;labelBackgroundColor=#ffffff;imageAspect=0;aspect=fixed;image=https://cdn3.iconfinder.com/data/icons/travelling-icon-set-ii-part/800/tent-128.png" vertex="1" parent="1">
          <mxGeometry x="690" y="890" width="20" height="20" as="geometry" />
        </mxCell>
        <mxCell id="DvPo4eW4fTsrVd996iuE-402" value="" style="shape=image;html=1;verticalAlign=top;verticalLabelPosition=bottom;labelBackgroundColor=#ffffff;imageAspect=0;aspect=fixed;image=https://cdn3.iconfinder.com/data/icons/travelling-icon-set-ii-part/800/tent-128.png" vertex="1" parent="1">
          <mxGeometry x="730" y="890" width="20" height="20" as="geometry" />
        </mxCell>
        <mxCell id="DvPo4eW4fTsrVd996iuE-403" value="" style="shape=image;html=1;verticalAlign=top;verticalLabelPosition=bottom;labelBackgroundColor=#ffffff;imageAspect=0;aspect=fixed;image=https://cdn3.iconfinder.com/data/icons/travelling-icon-set-ii-part/800/tent-128.png" vertex="1" parent="1">
          <mxGeometry x="770" y="890" width="20" height="20" as="geometry" />
        </mxCell>
        <mxCell id="DvPo4eW4fTsrVd996iuE-404" value="" style="shape=image;html=1;verticalAlign=top;verticalLabelPosition=bottom;labelBackgroundColor=#ffffff;imageAspect=0;aspect=fixed;image=https://cdn3.iconfinder.com/data/icons/travelling-icon-set-ii-part/800/tent-128.png" vertex="1" parent="1">
          <mxGeometry x="570" y="690" width="20" height="20" as="geometry" />
        </mxCell>
        <mxCell id="DvPo4eW4fTsrVd996iuE-405" value="" style="shape=image;html=1;verticalAlign=top;verticalLabelPosition=bottom;labelBackgroundColor=#ffffff;imageAspect=0;aspect=fixed;image=https://cdn3.iconfinder.com/data/icons/travelling-icon-set-ii-part/800/tent-128.png" vertex="1" parent="1">
          <mxGeometry x="570" y="730" width="20" height="20" as="geometry" />
        </mxCell>
        <mxCell id="DvPo4eW4fTsrVd996iuE-406" value="" style="shape=image;html=1;verticalAlign=top;verticalLabelPosition=bottom;labelBackgroundColor=#ffffff;imageAspect=0;aspect=fixed;image=https://cdn3.iconfinder.com/data/icons/travelling-icon-set-ii-part/800/tent-128.png" vertex="1" parent="1">
          <mxGeometry x="570" y="770" width="20" height="20" as="geometry" />
        </mxCell>
        <mxCell id="DvPo4eW4fTsrVd996iuE-407" value="" style="shape=image;html=1;verticalAlign=top;verticalLabelPosition=bottom;labelBackgroundColor=#ffffff;imageAspect=0;aspect=fixed;image=https://cdn3.iconfinder.com/data/icons/travelling-icon-set-ii-part/800/tent-128.png" vertex="1" parent="1">
          <mxGeometry x="890" y="690" width="20" height="20" as="geometry" />
        </mxCell>
        <mxCell id="DvPo4eW4fTsrVd996iuE-408" value="" style="shape=image;html=1;verticalAlign=top;verticalLabelPosition=bottom;labelBackgroundColor=#ffffff;imageAspect=0;aspect=fixed;image=https://cdn3.iconfinder.com/data/icons/travelling-icon-set-ii-part/800/tent-128.png" vertex="1" parent="1">
          <mxGeometry x="890" y="730" width="20" height="20" as="geometry" />
        </mxCell>
        <mxCell id="DvPo4eW4fTsrVd996iuE-409" value="" style="shape=image;html=1;verticalAlign=top;verticalLabelPosition=bottom;labelBackgroundColor=#ffffff;imageAspect=0;aspect=fixed;image=https://cdn3.iconfinder.com/data/icons/travelling-icon-set-ii-part/800/tent-128.png" vertex="1" parent="1">
          <mxGeometry x="890" y="770" width="20" height="20" as="geometry" />
        </mxCell>
        <mxCell id="DvPo4eW4fTsrVd996iuE-410" value="2" style="whiteSpace=wrap;html=1;aspect=fixed;fillColor=#CCE5FF;strokeColor=#36393d;" vertex="1" parent="1">
          <mxGeometry x="80" y="200" width="40" height="40" as="geometry" />
        </mxCell>
        <mxCell id="DvPo4eW4fTsrVd996iuE-411" value="3" style="whiteSpace=wrap;html=1;aspect=fixed;fillColor=#66B2FF;" vertex="1" parent="1">
          <mxGeometry x="80" y="280" width="40" height="40" as="geometry" />
        </mxCell>
        <mxCell id="DvPo4eW4fTsrVd996iuE-412" value="4" style="whiteSpace=wrap;html=1;aspect=fixed;fillColor=#0066CC;" vertex="1" parent="1">
          <mxGeometry x="80" y="360" width="40" height="40" as="geometry" />
        </mxCell>
      </root>
    </mxGraphModel>
  </diagram>
</mxfile>
